<svg width="76" height="76" viewBox="0 0 76 76" fill="none" xmlns="http://www.w3.org/2000/svg">
<g opacity="0.06" clip-path="url(#clip0_976_584)">
<path d="M35.7676 26.9527L45.068 32.3223C46.0301 32.9195 46.7286 33.8608 47.0214 34.9547C47.3142 36.0487 47.1794 37.213 46.6442 38.211C46.0726 39.201 45.1313 39.9235 44.0272 40.2197C42.9231 40.5158 41.7466 40.3614 40.7563 39.7904L31.4559 34.4208L35.7676 26.9527Z" stroke="#17191C" stroke-width="1.5" stroke-linecap="round" stroke-linejoin="round"/>
<path d="M31.4696 34.397L42.0981 40.5333C43.1954 41.0789 44.0324 42.0362 44.4266 43.1965C44.8208 44.3568 44.7402 45.6259 44.2024 46.727C43.5177 47.7433 42.459 48.4476 41.257 48.6864C40.0551 48.9251 38.8075 48.6789 37.7864 48.0014L27.1579 41.8651L31.4696 34.397Z" stroke="#17191C" stroke-width="1.5" stroke-linecap="round" stroke-linejoin="round"/>
<path d="M33.6768 45.5971L31.5209 49.3312" stroke="#17191C" stroke-width="1.5" stroke-linecap="round" stroke-linejoin="round"/>
<path d="M29.0278 42.9129L26.872 46.647" stroke="#17191C" stroke-width="1.5" stroke-linecap="round" stroke-linejoin="round"/>
<path d="M44.4287 26.9745L42.2728 30.7085" stroke="#17191C" stroke-width="1.5" stroke-linecap="round" stroke-linejoin="round"/>
<path d="M39.7793 24.2902L37.6234 28.0243" stroke="#17191C" stroke-width="1.5" stroke-linecap="round" stroke-linejoin="round"/>
<path d="M39.2949 28.9893L32.7896 25.2335" stroke="#17191C" stroke-width="1.5" stroke-linecap="round" stroke-linejoin="round"/>
<path d="M30.6992 43.8779L24.1938 40.1221" stroke="#17191C" stroke-width="1.5" stroke-linecap="round" stroke-linejoin="round"/>
<path d="M57.4268 49.0365C55.1599 52.9628 51.7798 56.1287 47.7137 58.1339C43.6476 60.139 39.0782 60.8935 34.5833 60.3017C30.0884 59.7099 25.87 57.7986 22.4614 54.8094C19.0528 51.8201 16.6072 47.8872 15.4338 43.5081C14.2604 39.1289 14.412 34.5001 15.8693 30.2071C17.3266 25.914 20.0242 22.1495 23.6209 19.3896C27.2177 16.6297 31.5521 14.9984 36.0761 14.7018C40.6 14.4053 45.1103 15.457 49.0366 17.7238C54.3015 20.7635 58.1433 25.7702 59.7167 31.6425C61.2902 37.5148 60.4665 43.7716 57.4268 49.0365Z" stroke="#17191C" stroke-width="1.5"/>
</g>
<defs>
<clipPath id="clip0_976_584">
<rect width="55.014" height="55.014" fill="white" transform="translate(27.5068) rotate(30)"/>
</clipPath>
</defs>
</svg>
