<svg width="9" height="6" viewBox="0 0 9 6" fill="none" xmlns="http://www.w3.org/2000/svg">
<g clip-path="url(#clip0_867_316)">
<path d="M0.748259 0.971993C0.846783 0.97164 0.944391 0.990911 1.03539 1.02868C1.12638 1.06646 1.20895 1.12197 1.27826 1.19199L4.27826 4.19199L7.27826 1.19199C7.42043 1.05951 7.60848 0.98739 7.80278 0.990819C7.99708 0.994247 8.18247 1.07296 8.31988 1.21037C8.45729 1.34778 8.53601 1.53317 8.53943 1.72747C8.54286 1.92177 8.47074 2.10982 8.33826 2.25199L4.80726 5.78199C4.66612 5.92147 4.47569 5.99969 4.27726 5.99969C4.07883 5.99969 3.8884 5.92147 3.74726 5.78199L0.217258 2.25199C0.0777782 2.11086 -0.000442505 1.92042 -0.000442505 1.72199C-0.000442505 1.52356 0.0777782 1.33313 0.217258 1.19199C0.286688 1.12185 0.369414 1.06627 0.460591 1.02849C0.551769 0.990714 0.649566 0.971507 0.748259 0.971993V0.971993Z" fill="#3A31A1"/>
</g>
<defs>
<clipPath id="clip0_867_316">
<rect width="8.555" height="5.027" fill="white" transform="translate(8.55518 6) rotate(-180)"/>
</clipPath>
</defs>
</svg>
