<svg width="24" height="24" viewBox="0 0 24 24" fill="none" xmlns="http://www.w3.org/2000/svg">
<path d="M18 2H6C5.60793 1.99776 5.21926 2.07284 4.85623 2.22093C4.4932 2.36903 4.16293 2.58724 3.8843 2.86308C3.60567 3.13893 3.38415 3.46699 3.23242 3.82851C3.08068 4.19004 3.0017 4.57793 3 4.97L3 15.88C3.0017 16.2721 3.08068 16.66 3.23242 17.0215C3.38415 17.383 3.60567 17.7111 3.8843 17.9869C4.16293 18.2628 4.4932 18.481 4.85623 18.6291C5.21926 18.7772 5.60793 18.8522 6 18.85H6.76C7.15323 18.8484 7.54292 18.9244 7.90672 19.0737C8.27051 19.223 8.60126 19.4426 8.88 19.72L10.59 21.41C10.9679 21.7802 11.4759 21.9876 12.005 21.9876C12.5341 21.9876 13.0421 21.7802 13.42 21.41L15.13 19.72C15.6937 19.1609 16.4561 18.848 17.25 18.85H18C18.3921 18.8522 18.7807 18.7772 19.1438 18.6291C19.5068 18.481 19.8371 18.2628 20.1157 17.9869C20.3943 17.7111 20.6158 17.383 20.7676 17.0215C20.9193 16.66 20.9983 16.2721 21 15.88V4.97C20.9983 4.57793 20.9193 4.19004 20.7676 3.82851C20.6158 3.46699 20.3943 3.13893 20.1157 2.86308C19.8371 2.58724 19.5068 2.36903 19.1438 2.22093C18.7807 2.07284 18.3921 1.99776 18 2ZM10.38 13.01C10.5789 13.01 10.7697 13.089 10.9103 13.2297C11.051 13.3703 11.13 13.5611 11.13 13.76C11.13 13.9589 11.051 14.1497 10.9103 14.2903C10.7697 14.431 10.5789 14.51 10.38 14.51H7.7C7.48299 14.5101 7.2691 14.4584 7.07606 14.3593C6.88301 14.2601 6.71639 14.1164 6.59 13.94C6.46944 13.7752 6.38942 13.5842 6.35641 13.3827C6.32339 13.1812 6.33833 12.9747 6.4 12.78C6.78765 11.8517 7.48338 11.0853 8.37 10.61C9.17 10.07 9.62 9.73 9.62 9.15C9.61867 8.90203 9.51889 8.66473 9.34261 8.49032C9.16633 8.31591 8.92798 8.21868 8.68 8.22C8.43202 8.22133 8.19473 8.32111 8.02032 8.49739C7.84591 8.67368 7.74867 8.91203 7.75 9.16C7.75 9.35891 7.67098 9.54968 7.53033 9.69033C7.38968 9.83099 7.19891 9.91 7 9.91C6.80109 9.91 6.61032 9.83099 6.46967 9.69033C6.32902 9.54968 6.25 9.35891 6.25 9.16C6.25 8.83958 6.31311 8.52229 6.43573 8.22626C6.55836 7.93022 6.73808 7.66124 6.96466 7.43466C7.19123 7.20809 7.46022 7.02836 7.75625 6.90574C8.05229 6.78312 8.36957 6.72 8.69 6.72C9.01043 6.72 9.32771 6.78312 9.62375 6.90574C9.91978 7.02836 10.1888 7.20809 10.4153 7.43466C10.6419 7.66124 10.8216 7.93022 10.9443 8.22626C11.0669 8.52229 11.13 8.83958 11.13 9.16C11.13 10.57 10.07 11.29 9.22 11.87C8.71335 12.1537 8.27613 12.5465 7.94 13.02H10.38V13.01ZM17 13.08H16.79V13.77C16.79 13.9689 16.711 14.1597 16.5703 14.3003C16.4297 14.441 16.2389 14.52 16.04 14.52C15.8411 14.52 15.6503 14.441 15.5097 14.3003C15.369 14.1597 15.29 13.9689 15.29 13.77V13.08H13.32C13.0797 13.0796 12.8436 13.0167 12.635 12.8975C12.4263 12.7783 12.2523 12.6068 12.13 12.4C12.0072 12.1908 11.9424 11.9526 11.9424 11.71C11.9424 11.4674 12.0072 11.2292 12.13 11.02C12.81 9.85 13.6 8.52 14.32 7.36C14.4724 7.11296 14.7015 6.92261 14.9723 6.81804C15.2431 6.71348 15.5407 6.70045 15.8196 6.78094C16.0985 6.86144 16.3434 7.03103 16.5168 7.2638C16.6902 7.49658 16.7827 7.77974 16.78 8.07V11.59H17C17.1985 11.5913 17.3885 11.6708 17.5289 11.8111C17.6693 11.9515 17.7487 12.1415 17.75 12.34C17.7482 12.5374 17.6682 12.7261 17.5277 12.8648C17.3871 13.0034 17.1974 13.0808 17 13.08Z" fill="#FBD054"/>
<path d="M15.29 11.58V8.64001C14.7 9.60001 14.09 10.63 13.54 11.57H15.29V11.58Z" fill="#FBD054"/>
</svg>
