<svg width="24" height="24" viewBox="0 0 24 24" fill="none" xmlns="http://www.w3.org/2000/svg">
<path d="M14.9698 12.75H9.52979V15.58H14.9698C15.3865 15.6165 15.801 15.4883 16.1244 15.2228C16.4478 14.9574 16.6543 14.5759 16.6998 14.16C16.6519 13.7459 16.4443 13.3669 16.1212 13.1036C15.7981 12.8402 15.385 12.7134 14.9698 12.75Z" fill="#FBD054"/>
<path d="M12 2C10.0222 2 8.08879 2.58649 6.4443 3.6853C4.79981 4.78412 3.51809 6.3459 2.76121 8.17317C2.00433 10.0004 1.8063 12.0111 2.19215 13.9509C2.578 15.8907 3.53041 17.6725 4.92894 19.0711C6.32746 20.4696 8.10929 21.422 10.0491 21.8079C11.9889 22.1937 13.9996 21.9957 15.8268 21.2388C17.6541 20.4819 19.2159 19.2002 20.3147 17.5557C21.4135 15.9112 22 13.9778 22 12C22 9.34784 20.9464 6.8043 19.0711 4.92893C17.1957 3.05357 14.6522 2 12 2V2ZM14.97 17.08H13.32V18.5C13.32 18.6989 13.241 18.8897 13.1003 19.0303C12.9597 19.171 12.7689 19.25 12.57 19.25C12.3711 19.25 12.1803 19.171 12.0397 19.0303C11.899 18.8897 11.82 18.6989 11.82 18.5V17.08H10.61V18.5C10.61 18.6989 10.531 18.8897 10.3903 19.0303C10.2497 19.171 10.0589 19.25 9.86 19.25C9.66109 19.25 9.47033 19.171 9.32967 19.0303C9.18902 18.8897 9.11 18.6989 9.11 18.5V17.08H7.05C6.85109 17.08 6.66033 17.001 6.51967 16.8603C6.37902 16.7197 6.3 16.5289 6.3 16.33C6.3 16.1311 6.37902 15.9403 6.51967 15.7997C6.66033 15.659 6.85109 15.58 7.05 15.58H8.03V8.42H7.05C6.85109 8.42 6.66033 8.34098 6.51967 8.20033C6.37902 8.05968 6.3 7.86891 6.3 7.67C6.3 7.47109 6.37902 7.28032 6.51967 7.13967C6.66033 6.99902 6.85109 6.92 7.05 6.92H9.11V5.5C9.11 5.30109 9.18902 5.11032 9.32967 4.96967C9.47033 4.82902 9.66109 4.75 9.86 4.75C10.0589 4.75 10.2497 4.82902 10.3903 4.96967C10.531 5.11032 10.61 5.30109 10.61 5.5V6.92H11.82V5.5C11.82 5.30109 11.899 5.11032 12.0397 4.96967C12.1803 4.82902 12.3711 4.75 12.57 4.75C12.7689 4.75 12.9597 4.82902 13.1003 4.96967C13.241 5.11032 13.32 5.30109 13.32 5.5V6.92H14.2C14.9681 6.94022 15.6991 7.25436 16.2424 7.79764C16.7856 8.34092 17.0998 9.07195 17.12 9.84C17.1149 10.4854 16.897 11.1111 16.5 11.62C16.9962 11.8427 17.4191 12.2013 17.72 12.6543C18.0208 13.1074 18.1873 13.6363 18.2 14.18C18.1512 14.991 17.7848 15.7502 17.1803 16.293C16.5757 16.8358 15.7816 17.1186 14.97 17.08Z" fill="#FBD054"/>
<path d="M15.6198 9.83C15.6018 9.45919 15.4465 9.10835 15.184 8.84584C14.9214 8.58333 14.5706 8.42796 14.1998 8.41H9.52979V11.24H14.1998C14.3858 11.2412 14.5701 11.2056 14.7423 11.1353C14.9144 11.065 15.071 10.9613 15.203 10.8303C15.3349 10.6992 15.4397 10.5434 15.5112 10.3717C15.5828 10.2001 15.6197 10.016 15.6198 9.83Z" fill="#FBD054"/>
</svg>
