<svg width="24" height="24" viewBox="0 0 24 24" fill="none" xmlns="http://www.w3.org/2000/svg">
<path d="M16.19 2H7.81C4.17 2 2 4.17 2 7.81V16.18C2 19.83 4.17 22 7.81 22H16.18C19.82 22 21.99 19.83 21.99 16.19V7.81C22 4.17 19.83 2 16.19 2ZM17.26 9.96L14.95 12.94C14.8098 13.1234 14.6338 13.2765 14.4327 13.3899C14.2315 13.5034 14.0095 13.5748 13.78 13.6C13.5503 13.6298 13.3169 13.6133 13.0936 13.5515C12.8703 13.4897 12.6617 13.3838 12.48 13.24L10.65 11.8C10.6244 11.7774 10.5939 11.7612 10.5609 11.7525C10.5279 11.7438 10.4934 11.743 10.46 11.75C10.4259 11.7524 10.3928 11.7627 10.3633 11.7801C10.3338 11.7974 10.3087 11.8214 10.29 11.85L7.91 14.94C7.83998 15.0298 7.75051 15.1026 7.64832 15.1528C7.54613 15.203 7.43387 15.2294 7.32 15.23C7.15295 15.2304 6.99073 15.174 6.86 15.07C6.78186 15.0103 6.71625 14.9357 6.66693 14.8506C6.6176 14.7655 6.58553 14.6715 6.57252 14.574C6.55952 14.4765 6.56586 14.3774 6.59116 14.2823C6.61646 14.1873 6.66024 14.0981 6.72 14.02L9.1 10.93C9.24115 10.7466 9.41726 10.5929 9.61814 10.4779C9.81902 10.3629 10.0407 10.2889 10.2704 10.26C10.5 10.2312 10.7331 10.2482 10.9562 10.31C11.1793 10.3717 11.3879 10.4771 11.57 10.62L13.4 12.06C13.4254 12.0829 13.4559 12.0994 13.4889 12.1081C13.522 12.1168 13.5566 12.1174 13.59 12.11C13.6241 12.1076 13.6572 12.0973 13.6867 12.0799C13.7162 12.0626 13.7413 12.0386 13.76 12.01L16.07 9.03C16.1297 8.9515 16.2044 8.88573 16.2899 8.83656C16.3753 8.78739 16.4698 8.75582 16.5676 8.7437C16.6654 8.73159 16.7647 8.73918 16.8596 8.76602C16.9545 8.79286 17.043 8.83842 17.12 8.9C17.2774 9.02325 17.3801 9.20327 17.4063 9.40143C17.4325 9.59959 17.38 9.80012 17.26 9.96Z" fill="#FBD054"/>
</svg>
