<svg width="96" height="78" viewBox="0 0 96 78" fill="none" xmlns="http://www.w3.org/2000/svg">
<path fill-rule="evenodd" clip-rule="evenodd" d="M51.3953 0.000153725C58.861 -0.0348686 62.4703 5.91893 61.8967 13.1335C61.2525 13.6764 60.8466 13.7464 60.1318 13.2211C60.1935 12.0216 60.2465 10.8308 60.3082 9.6313C59.6905 5.7088 58.3403 3.17843 54.9252 2.01394C53.9721 1.68998 52.0307 1.18216 50.8658 1.66372C50.8923 3.85261 50.9276 6.04151 50.954 8.2304C51.4571 18.9648 58.8345 18.7809 69.6625 17.5113C70.2272 17.9141 70.5626 18.1505 70.3684 19.0873C70.1655 19.2012 69.9537 19.3237 69.7507 19.4376C68.0475 19.3763 66.3355 19.3237 64.6324 19.2624C54.3339 19.2624 51.8895 19.814 51.1305 28.9811C51.1923 31.17 51.2453 33.3589 51.307 35.5478C56.1871 36.3446 59.4964 32.9912 60.3965 29.4189C60.9525 27.2213 59.417 23.3601 61.7202 23.3776C61.8967 23.5789 62.0732 23.7891 62.2497 23.9905C62.0291 31.7567 59.0022 38.5598 50.0716 36.6861C49.9833 35.3114 49.8951 33.9456 49.8068 32.5709C48.9597 25.3476 50.6011 21.0836 55.0134 18.562C54.1045 17.8615 53.1867 17.1611 52.2778 16.4607C49.8598 13.5538 49.6303 9.87645 49.5421 4.4655C49.5244 3.13465 49.1273 1.05958 49.8951 0.262821C50.3981 0.175265 50.9011 0.0877096 51.3953 0.000153725Z" fill="#EEEEEE"/>
<path fill-rule="evenodd" clip-rule="evenodd" d="M54.8899 6C55.1976 6.0257 55.5145 6.05996 55.8221 6.08566C55.9806 6.25697 56.1298 6.42828 56.2882 6.59959C55.7196 11.9017 55.5518 15.1138 62.534 14.48C63.5128 14.3943 63.8204 13.9489 64.8645 14.0517C65.0509 14.3343 65.2374 14.6256 65.4238 14.9082C65.2654 15.1909 65.1162 15.4821 64.9577 15.7648C61.2569 16.5271 55.6823 15.405 54.7967 12.8525C54.7687 11.482 54.7315 10.1115 54.7035 8.741C54.6103 7.94439 54.517 7.13923 54.4238 6.34262C54.5823 6.23127 54.7408 6.11135 54.8899 6Z" fill="#EEEEEE"/>
<path fill-rule="evenodd" clip-rule="evenodd" d="M66.4345 15.0021C81.0871 14.8372 90.7602 24.3303 94.2328 35.4808C96.926 44.1148 94.8563 56.2458 89.9895 61.0791C86.6121 64.4372 78.7489 63.3005 72.7562 64.0294C71.0243 64.0901 69.2923 64.1422 67.5603 64.2029C65.7244 63.4046 65.0489 59.708 62.2778 59.0833C62.2778 59.1093 62.2778 59.144 62.2778 59.1701C63.2044 60.6452 64.1223 62.1204 65.0489 63.5955C68.1145 68.9234 69.7859 73.965 74.315 77.7397C74.315 77.8265 74.315 77.9132 74.315 78C74.289 78 74.2544 78 74.2284 78C66.703 75.9348 60.9008 69.8259 57.5148 63.5088C55.5057 59.7601 54.0768 55.916 50.9333 53.3562C48.5864 51.4385 45.4862 50.6575 42.0136 49.7985C40.5414 49.434 38.4544 49.5034 37.4238 48.6704C37.4498 48.4708 37.4844 48.2626 37.5104 48.063C39.814 46.5097 45.287 47.4122 48.1621 47.8894C52.1976 48.5576 55.7222 49.0956 59.3334 50.1456C63.7326 51.4298 69.3529 54.6838 75.0944 53.0091C89.8249 48.7138 87.201 27.7319 77.4326 20.1218C75.6313 18.7247 73.4144 17.6053 71.1109 16.7376C69.7426 16.2256 66.9887 16.1215 66.0881 15.0889C66.2094 15.0629 66.3219 15.0281 66.4345 15.0021Z" fill="white"/>
<path fill-rule="evenodd" clip-rule="evenodd" d="M73.1847 21C73.4903 21.0609 73.7877 21.113 74.0934 21.1739C74.2008 21.5217 74.3164 21.8696 74.4238 22.2174C74.2834 22.3913 74.1512 22.5652 74.0108 22.7391C73.226 23.2261 72.2099 22.4783 70.8717 22.4783C66.5017 22.4696 58.0012 21.2174 56.9108 24.5652C56.3573 26.2609 57.0925 29.0435 57.2412 30.3043C57.0512 30.5391 56.853 30.7652 56.663 31C56.3903 30.9739 56.1095 30.9391 55.8369 30.913C55.6964 30.7391 55.5643 30.5652 55.4238 30.3913C56.0517 19.2783 57.8277 21.3478 68.3934 21.3478C69.963 21.3478 72.1438 21.5826 73.1847 21Z" fill="#EEEEEE"/>
<path fill-rule="evenodd" clip-rule="evenodd" d="M38.7695 50C41.7161 50.8748 42.1308 54.0276 43.5221 56.4094C46.4427 61.4157 50.7201 65.1748 55.9652 67.8425C57.5292 68.6394 61.7029 70.1465 61.4091 72C52.6643 71.1079 38.588 59.3283 38.4238 50.2598C38.5448 50.1732 38.6571 50.0866 38.7695 50Z" fill="url(#paint0_linear_1318_418)"/>
<path fill-rule="evenodd" clip-rule="evenodd" d="M41.4589 51C44.1528 51.266 44.4426 53.997 45.5509 55.8768C47.2559 58.7764 49.498 61.3744 52.03 63.4138C54.076 65.0631 57.452 66.1803 58.4238 68.9113C58.4238 68.9379 58.4238 68.9734 58.4238 69C53.5475 68.53 40.666 56.2049 41.4589 51Z" fill="url(#paint1_linear_1318_418)"/>
<path fill-rule="evenodd" clip-rule="evenodd" d="M44.5071 52.0082C44.5342 52.0082 44.5704 52.0082 44.5975 52.0082C45.3381 51.9818 45.6994 51.9554 46.4401 53.0202C47.6415 54.4898 48.8518 55.9506 50.0532 57.4201C51.2003 58.7929 52.3475 60.1129 53.5488 61.4417C54.7411 62.7617 55.9154 64.02 57.1528 65.296C57.2432 65.4104 57.3335 65.5336 57.4238 65.648C57.4238 65.7624 57.4238 65.8856 57.4238 66C54.3889 65.4456 43.36 54.9474 44.5071 52.0082Z" fill="url(#paint2_linear_1318_418)"/>
<path fill-rule="evenodd" clip-rule="evenodd" d="M48.4238 53C50.9389 53.5365 54.6913 59.274 55.4238 61.9135C55.318 61.9394 55.2041 61.974 55.0982 62C53.0227 59.8712 48.4645 56.6779 48.4238 53Z" fill="url(#paint3_linear_1318_418)"/>
<path fill-rule="evenodd" clip-rule="evenodd" d="M85.5707 65C85.8523 65 86.1423 65 86.4238 65C85.1186 67.8331 69.3452 71.4768 68.4238 66.6376C68.5091 66.5803 68.5944 66.5312 68.6798 66.4739C74.2674 66.5312 81.3395 66.7523 85.5707 65Z" fill="url(#paint4_linear_1318_418)"/>
<path fill-rule="evenodd" clip-rule="evenodd" d="M81.9032 68C82.0768 68 82.2503 68 82.4238 68C82.4238 68.0734 82.4238 68.1468 82.4238 68.2202C82.3978 68.2422 82.3631 68.2715 82.3371 68.2936C80.2026 69.4605 74.6756 72.3594 71.4045 71.9631C70.6323 71.8603 69.9382 71.442 69.6171 70.8255C69.3655 70.3485 69.3655 69.8054 69.5824 69.321C71.0054 69.3504 72.385 69.3357 73.7819 69.2843C74.6322 69.255 75.5433 69.2036 76.2114 69.1375C78.1723 68.9467 80.0725 68.5651 81.9032 68Z" fill="url(#paint5_linear_1318_418)"/>
<path fill-rule="evenodd" clip-rule="evenodd" d="M0.00860173 1.45825C0.3441 1.45825 0.679598 1.45825 1.0151 1.45825V11.1132C1.84954 11.9901 2.69259 12.8671 3.52703 13.744C4.40449 12.8671 5.28195 11.9901 6.15941 11.1132V1.45825C6.53792 1.45825 6.91643 1.45825 7.28634 1.45825C7.28634 4.6737 7.28634 7.89774 7.28634 11.1132C8.16379 11.9901 9.04125 12.8671 9.91871 13.744C10.7962 12.8671 11.6736 11.9901 12.5511 11.1132V1.45825H13.5576V11.4915L9.91871 15.1282L6.78739 11.9987L3.51843 15.1368C2.34849 13.8816 1.17855 12.6263 0 11.3711C0.00860252 8.06969 0.00860173 4.76827 0.00860173 1.45825Z" fill="white"/>
<path fill-rule="evenodd" clip-rule="evenodd" d="M0.00860173 22.522C0.3441 22.522 0.679598 22.522 1.0151 22.522V32.1769C1.84954 33.0539 2.69259 33.9308 3.52703 34.8078C4.40449 33.9308 5.28195 33.0539 6.15941 32.1769V22.522C6.53792 22.522 6.91643 22.522 7.28634 22.522C7.28634 25.7374 7.28634 28.9615 7.28634 32.1769C8.16379 33.0539 9.04125 33.9308 9.91871 34.8078C10.7962 33.9308 11.6736 33.0539 12.5511 32.1769V22.522H13.5576V32.5552L9.91871 36.1919L6.78739 33.0625L3.51843 36.2005C2.34849 34.9453 1.17855 33.6901 0 32.4349C0.00860252 29.1334 0.00860173 25.832 0.00860173 22.522Z" fill="white"/>
<path fill-rule="evenodd" clip-rule="evenodd" d="M16.0693 1.45825V14.8789H17.0758V8.86066H22.7277V14.8789H23.7342V1.45825H22.7277V7.73439H17.0758V1.45825H16.0693Z" fill="white"/>
<path fill-rule="evenodd" clip-rule="evenodd" d="M15.02 22.522V35.9426H16.0265V29.9244H21.6784V35.9426H22.6849V22.522H21.6784V28.7981H16.0265V22.522H15.02Z" fill="white"/>
<path fill-rule="evenodd" clip-rule="evenodd" d="M24.1729 23.9836V35.8824H25.1793V30.5434H30.8226V35.8824H31.8205V23.9836H30.814V29.5461H25.1707V23.9836H24.1729Z" fill="white"/>
<path fill-rule="evenodd" clip-rule="evenodd" d="M26.4873 1.45825H27.5712V14.8789H26.4873V1.45825Z" fill="white"/>
<path fill-rule="evenodd" clip-rule="evenodd" d="M29.8765 1.45825H38.1607V2.58452H34.5218V14.8789C34.1433 14.8789 33.7648 14.8789 33.3949 14.8789C33.3949 10.7779 33.3949 6.6855 33.3949 2.58452C32.225 2.58452 31.055 2.58452 29.8765 2.58452V1.45825Z" fill="white"/>
<path fill-rule="evenodd" clip-rule="evenodd" d="M40.1653 1.45825C42.5482 1.45825 44.9311 1.45825 47.3226 1.45825C47.3226 1.79355 47.3226 2.12885 47.3226 2.46415C45.2752 2.46415 43.2192 2.46415 41.1718 2.46415C41.1718 4.26102 41.1718 6.05789 41.1718 7.85475H47.3226V8.86066H41.1718V12.7467C41.1718 12.7467 41.3267 13.6666 42.1783 13.7526C43.03 13.8386 47.0732 13.8816 47.0732 13.8816V14.8875L42.1783 14.7585C42.1181 14.7499 42.0665 14.7499 42.0063 14.7413C41.5761 14.6811 41.2062 14.5264 40.9223 14.2599C40.3976 13.7698 40.3202 13.082 40.2944 12.6263C40.1911 10.7779 40.1567 5.22393 40.1653 1.45825Z" fill="white"/>
<path fill-rule="evenodd" clip-rule="evenodd" d="M40.294 22.6596C42.6769 22.6596 45.0598 22.6596 47.4513 22.6596C47.4513 22.9949 47.4513 23.3302 47.4513 23.6655C45.4039 23.6655 43.3479 23.6655 41.3005 23.6655C41.3005 25.4623 41.3005 27.2592 41.3005 29.0561H47.4513V30.062H41.3005V33.948C41.3005 33.948 41.4553 34.868 42.307 34.9539C43.1586 35.0399 47.2018 35.0829 47.2018 35.0829V36.0888L42.307 35.9598C42.2468 35.9512 42.1952 35.9512 42.1349 35.9426C41.7048 35.8825 41.3349 35.7277 41.051 35.4612C40.5263 34.9711 40.4489 34.2833 40.423 33.8277C40.3112 31.9792 40.2854 26.4167 40.294 22.6596Z" fill="white"/>
<path fill-rule="evenodd" clip-rule="evenodd" d="M33.3952 22.4618H34.4017V33.3548C34.4017 33.3548 34.4361 34.9281 35.6577 34.9109C36.8792 34.8937 39.6751 34.9109 39.6751 34.9109V35.9512H34.9093C34.9093 35.9512 33.4124 35.5901 33.4038 33.7503C33.3866 31.8932 33.3952 22.4618 33.3952 22.4618Z" fill="white"/>
<defs>
<linearGradient id="paint0_linear_1318_418" x1="38.8575" y1="60.9991" x2="61.8576" y2="60.9991" gradientUnits="userSpaceOnUse">
<stop stop-color="#FBD054"/>
<stop offset="1" stop-color="#C99C2C"/>
</linearGradient>
<linearGradient id="paint1_linear_1318_418" x1="41.4255" y1="59.9991" x2="58.4255" y2="59.9991" gradientUnits="userSpaceOnUse">
<stop stop-color="#FBD054"/>
<stop offset="1" stop-color="#C99C2C"/>
</linearGradient>
<linearGradient id="paint2_linear_1318_418" x1="45.1779" y1="58.9991" x2="58.1777" y2="58.9991" gradientUnits="userSpaceOnUse">
<stop offset="0.00705268" stop-color="#FBD054"/>
<stop offset="1" stop-color="#C99C2C"/>
</linearGradient>
<linearGradient id="paint3_linear_1318_418" x1="48.6942" y1="57.4983" x2="55.6942" y2="57.4983" gradientUnits="userSpaceOnUse">
<stop stop-color="#FBD054"/>
<stop offset="1" stop-color="#C99C2C"/>
</linearGradient>
<linearGradient id="paint4_linear_1318_418" x1="68.4255" y1="66.9985" x2="86.4255" y2="66.9985" gradientUnits="userSpaceOnUse">
<stop stop-color="#C99C2C"/>
<stop offset="1" stop-color="#AE7D2C"/>
</linearGradient>
<linearGradient id="paint5_linear_1318_418" x1="69.4234" y1="69.9992" x2="82.4256" y2="69.9992" gradientUnits="userSpaceOnUse">
<stop stop-color="#C99C2C"/>
<stop offset="1" stop-color="#AE7D2C"/>
</linearGradient>
</defs>
</svg>
