<svg width="271" height="362" viewBox="0 0 271 362" fill="none" xmlns="http://www.w3.org/2000/svg">
<g opacity="0.12">
<path fill-rule="evenodd" clip-rule="evenodd" d="M63.7791 0.000707768C97.9292 -0.160539 114.439 27.2514 111.815 60.4683C108.869 62.9676 107.012 63.2901 103.742 60.8714C104.025 55.3487 104.267 49.8663 104.549 44.3436C101.724 26.284 95.5476 14.6339 79.9258 9.2724C75.5662 7.78087 66.6855 5.44279 61.3572 7.65994C61.4783 17.7379 61.6397 27.8158 61.7608 37.8937C64.0617 87.3159 97.8081 86.4694 147.338 80.6242C149.921 82.4785 151.455 83.5669 150.567 87.8803C149.639 88.4043 148.67 88.9687 147.742 89.4927C139.951 89.2106 132.12 88.9687 124.329 88.6865C77.2212 88.6865 66.0397 91.2261 62.5682 133.433C62.8507 143.51 63.0929 153.588 63.3755 163.666C85.6982 167.335 100.836 151.895 104.953 135.448C107.496 125.33 100.472 107.552 111.008 107.633C111.815 108.56 112.623 109.528 113.43 110.455C112.421 146.211 98.5751 177.534 57.7242 168.907C57.3205 162.578 56.9168 156.289 56.5132 149.96C52.638 116.703 60.1462 97.0713 80.3294 85.4616C76.1717 82.2366 71.9736 79.0117 67.8158 75.7868C56.7554 62.4033 55.7058 45.4723 55.3022 20.5597C55.2214 14.4323 53.405 4.87843 56.9168 1.21006C59.2177 0.806942 61.5186 0.403825 63.7791 0.000707768Z" fill="#3A31A1"/>
<path fill-rule="evenodd" clip-rule="evenodd" d="M81.9441 27.4127C83.2762 27.5336 84.6487 27.6948 85.9808 27.8158C86.667 28.622 87.3129 29.4282 87.9991 30.2345C85.5367 55.1874 84.8101 70.3043 115.045 67.3213C119.283 66.9182 120.615 64.8219 125.136 65.3057C125.944 66.636 126.751 68.0066 127.558 69.3369C126.872 70.6671 126.226 72.0377 125.54 73.368C109.514 76.9558 85.3753 71.6749 81.5404 59.662C81.4193 53.2122 81.2579 46.7623 81.1368 40.3124C80.7331 36.5634 80.3294 32.7741 79.9258 29.0251C80.612 28.5011 81.2982 27.9367 81.9441 27.4127Z" fill="#3A31A1"/>
<path fill-rule="evenodd" clip-rule="evenodd" d="M135.228 69.3369C203.528 68.5709 248.618 112.672 264.805 164.473C277.359 204.583 267.711 260.939 245.025 283.392C229.282 298.993 192.629 293.712 164.696 297.098C156.622 297.38 148.549 297.622 140.476 297.904C131.918 294.196 128.769 277.023 115.852 274.12C115.852 274.241 115.852 274.403 115.852 274.524C120.171 281.377 124.45 288.23 128.769 295.083C143.059 319.834 150.85 343.255 171.962 360.791C171.962 361.194 171.962 361.597 171.962 362C171.84 362 171.679 362 171.558 362C136.479 352.406 109.434 324.026 93.6504 294.679C84.2854 277.265 77.6249 259.407 62.9718 247.515C52.0325 238.606 37.5813 234.978 21.3943 230.987C14.532 229.294 4.80362 229.616 0 225.746C0.1211 224.819 0.282566 223.852 0.403666 222.925C11.1412 215.709 36.6528 219.901 50.0545 222.118C68.8654 225.222 85.2945 227.722 102.127 232.599C122.634 238.565 148.832 253.682 175.595 245.902C244.258 225.948 232.027 128.474 186.494 93.1208C178.097 86.6306 167.763 81.4304 157.026 77.3992C150.648 75.0208 137.811 74.5371 133.613 69.74C134.178 69.619 134.703 69.4578 135.228 69.3369Z" fill="#321C81"/>
<path fill-rule="evenodd" clip-rule="evenodd" d="M167.925 96.3457C169.418 96.6279 170.872 96.8698 172.365 97.1519C172.89 98.7644 173.455 100.377 173.98 101.989C173.294 102.796 172.648 103.602 171.962 104.408C168.127 106.666 163.162 103.199 156.622 103.199C135.268 103.158 93.7311 97.3535 88.4027 112.874C85.6981 120.734 89.2908 133.634 90.0174 139.479C89.0889 140.568 88.1201 141.616 87.1917 142.704C85.8596 142.583 84.4871 142.422 83.155 142.301C82.4688 141.495 81.823 140.689 81.1367 139.882C84.2046 88.364 92.8834 97.9582 144.512 97.9582C152.182 97.9582 162.839 99.0466 167.925 96.3457Z" fill="#3A31A1"/>
<path fill-rule="evenodd" clip-rule="evenodd" d="M3.22941 233.809C16.9944 237.88 18.932 252.554 25.431 263.639C39.0749 286.94 59.0564 304.435 83.5589 316.851C90.8652 320.56 110.362 327.574 108.99 336.2C68.1388 332.048 2.38171 277.224 1.61475 235.018C2.17988 234.615 2.70464 234.212 3.22941 233.809Z" fill="url(#paint0_linear_819_264)"/>
<path fill-rule="evenodd" clip-rule="evenodd" d="M18.5687 238.646C31.3245 239.855 32.697 252.271 37.9446 260.818C46.0179 273.999 56.6343 285.811 68.6232 295.082C78.3112 302.58 94.2964 307.66 98.8981 320.076C98.8981 320.197 98.8981 320.358 98.8981 320.479C75.8085 318.342 14.8146 262.309 18.5687 238.646Z" fill="url(#paint1_linear_819_264)"/>
<path fill-rule="evenodd" clip-rule="evenodd" d="M33.1008 242.274C33.2219 242.274 33.3833 242.274 33.5044 242.274C36.8145 242.153 38.4292 242.032 41.7392 246.91C47.108 253.642 52.5171 260.334 57.8859 267.066C63.0124 273.354 68.139 279.401 73.5077 285.488C78.8361 291.535 84.0838 297.3 89.614 303.145C90.0177 303.669 90.4213 304.233 90.825 304.757C90.825 305.281 90.825 305.846 90.825 306.37C77.2618 303.83 27.9742 255.738 33.1008 242.274Z" fill="url(#paint2_linear_819_264)"/>
<path fill-rule="evenodd" clip-rule="evenodd" d="M48.9648 246.104C61.4381 248.603 80.047 275.33 83.68 287.625C83.1553 287.746 82.5901 287.907 82.0654 288.028C71.7719 278.111 49.1667 263.236 48.9648 246.104Z" fill="url(#paint3_linear_819_264)"/>
<path fill-rule="evenodd" clip-rule="evenodd" d="M224.842 300.323C226.174 300.323 227.546 300.323 228.879 300.323C222.702 314.271 148.065 332.21 143.705 308.385C144.109 308.103 144.512 307.861 144.916 307.579C171.356 307.861 204.82 308.95 224.842 300.323Z" fill="url(#paint4_linear_819_264)"/>
<path fill-rule="evenodd" clip-rule="evenodd" d="M208.695 314.835C209.502 314.835 210.31 314.835 211.117 314.835C211.117 315.238 211.117 315.641 211.117 316.045C210.996 316.166 210.835 316.327 210.713 316.448C200.783 322.857 175.07 338.78 159.852 336.604C156.259 336.039 153.03 333.741 151.536 330.355C150.365 327.735 150.365 324.752 151.375 322.091C157.995 322.253 164.413 322.172 170.912 321.89C174.868 321.729 179.106 321.446 182.215 321.084C191.337 320.035 200.178 317.939 208.695 314.835Z" fill="url(#paint5_linear_819_264)"/>
</g>
<defs>
<linearGradient id="paint0_linear_819_264" x1="3.64042" y1="285.001" x2="111.085" y2="285.001" gradientUnits="userSpaceOnUse">
<stop stop-color="#FBD054"/>
<stop offset="1" stop-color="#C99C2C"/>
</linearGradient>
<linearGradient id="paint1_linear_819_264" x1="18.4108" y1="279.558" x2="98.9062" y2="279.558" gradientUnits="userSpaceOnUse">
<stop stop-color="#FBD054"/>
<stop offset="1" stop-color="#C99C2C"/>
</linearGradient>
<linearGradient id="paint2_linear_819_264" x1="36.0983" y1="274.299" x2="94.1939" y2="274.299" gradientUnits="userSpaceOnUse">
<stop offset="0.00705268" stop-color="#FBD054"/>
<stop offset="1" stop-color="#C99C2C"/>
</linearGradient>
<linearGradient id="paint3_linear_819_264" x1="50.3059" y1="267.058" x2="85.0211" y2="267.058" gradientUnits="userSpaceOnUse">
<stop stop-color="#FBD054"/>
<stop offset="1" stop-color="#C99C2C"/>
</linearGradient>
<linearGradient id="paint4_linear_819_264" x1="143.713" y1="310.162" x2="228.887" y2="310.162" gradientUnits="userSpaceOnUse">
<stop stop-color="#C99C2C"/>
<stop offset="1" stop-color="#AE7D2C"/>
</linearGradient>
<linearGradient id="paint5_linear_819_264" x1="150.635" y1="325.817" x2="211.125" y2="325.817" gradientUnits="userSpaceOnUse">
<stop stop-color="#C99C2C"/>
<stop offset="1" stop-color="#AE7D2C"/>
</linearGradient>
</defs>
</svg>
