<svg width="275" height="195" viewBox="0 0 275 195" fill="none" xmlns="http://www.w3.org/2000/svg">
<path fill-rule="evenodd" clip-rule="evenodd" d="M144.871 10.7593C161.028 10.6831 168.838 23.6323 167.597 39.3237C166.203 40.5044 165.324 40.6567 163.778 39.5142C163.911 36.9053 164.026 34.3154 164.159 31.7065C162.823 23.1753 159.901 17.6719 152.51 15.1392C150.448 14.4346 146.246 13.3301 143.725 14.3774C143.783 19.1382 143.859 23.8989 143.916 28.6597C145.005 52.0063 160.97 51.6064 184.403 48.8452C185.625 49.7212 186.35 50.2354 185.93 52.2729C185.491 52.5205 185.033 52.7871 184.593 53.0347C180.908 52.9014 177.203 52.7871 173.517 52.6538C151.231 52.6538 145.941 53.8535 144.298 73.7915C144.432 78.5523 144.547 83.313 144.68 88.0737C155.241 89.8066 162.403 82.5132 164.35 74.7437C165.554 69.9639 162.231 61.5659 167.215 61.604C167.597 62.042 167.979 62.499 168.361 62.937C167.883 79.8281 161.333 94.6245 142.007 90.5493C141.816 87.5596 141.625 84.5889 141.434 81.5991C139.6 65.8887 143.153 56.6147 152.701 51.1304C150.734 49.6069 148.748 48.0835 146.781 46.5601C141.548 40.2378 141.052 32.2397 140.861 20.4712C140.823 17.5767 139.963 13.0635 141.625 11.3306C142.713 11.1401 143.802 10.9497 144.871 10.7593Z" fill="#EEEEEE"/>
<path fill-rule="evenodd" clip-rule="evenodd" d="M153.465 23.7085C154.095 23.7656 154.745 23.8418 155.375 23.8989C155.699 24.2798 156.005 24.6606 156.33 25.0415C155.165 36.8291 154.821 43.9702 169.125 42.561C171.13 42.3706 171.76 41.3804 173.899 41.6089C174.281 42.2373 174.663 42.8848 175.045 43.5132C174.72 44.1416 174.415 44.7891 174.09 45.4175C166.509 47.1123 155.088 44.6177 153.274 38.9429C153.217 35.896 153.14 32.8491 153.083 29.8022C152.892 28.0313 152.701 26.2412 152.51 24.4702C152.835 24.2227 153.16 23.9561 153.465 23.7085Z" fill="#EEEEEE"/>
<path fill-rule="evenodd" clip-rule="evenodd" d="M178.673 43.5132C210.986 43.1514 232.318 63.9844 239.976 88.4546C245.915 107.402 241.351 134.024 230.618 144.631C223.17 152.001 205.83 149.506 192.614 151.106C188.795 151.239 184.976 151.354 181.156 151.487C177.107 149.735 175.618 141.623 169.507 140.251C169.507 140.309 169.507 140.385 169.507 140.442C171.55 143.679 173.574 146.917 175.618 150.154C182.378 161.846 186.064 172.91 196.052 181.194C196.052 181.384 196.052 181.575 196.052 181.765C195.995 181.765 195.918 181.765 195.861 181.765C179.265 177.233 166.47 163.827 159.003 149.963C154.573 141.737 151.422 133.301 144.489 127.683C139.314 123.475 132.477 121.761 124.819 119.875C121.573 119.076 116.97 119.228 114.698 117.4C114.755 116.962 114.831 116.505 114.889 116.067C119.969 112.658 132.038 114.639 138.378 115.686C147.278 117.152 155.05 118.333 163.014 120.637C172.715 123.456 185.109 130.597 197.771 126.921C230.255 117.495 224.469 71.4492 202.927 54.7485C198.955 51.6826 194.066 49.2261 188.986 47.3218C185.969 46.1982 179.896 45.9697 177.91 43.7036C178.177 43.6465 178.425 43.5703 178.673 43.5132Z" fill="white"/>
<path fill-rule="evenodd" clip-rule="evenodd" d="M194.143 56.272C194.849 56.4053 195.537 56.5195 196.243 56.6528C196.492 57.4146 196.759 58.1763 197.007 58.938C196.682 59.3188 196.377 59.6997 196.052 60.0806C194.238 61.147 191.889 59.5093 188.795 59.5093C178.693 59.4902 159.042 56.748 156.521 64.0796C155.241 67.793 156.941 73.8867 157.285 76.6479C156.846 77.1621 156.387 77.6572 155.948 78.1714C155.318 78.1143 154.669 78.0381 154.038 77.981C153.714 77.6001 153.408 77.2192 153.083 76.8384C154.535 52.5015 158.641 57.0337 183.066 57.0337C186.695 57.0337 191.736 57.5479 194.143 56.272Z" fill="#EEEEEE"/>
<path fill-rule="evenodd" clip-rule="evenodd" d="M116.226 121.208C122.738 123.132 123.655 130.063 126.729 135.3C133.184 146.307 142.637 154.572 154.229 160.437C157.686 162.189 166.91 165.502 166.261 169.578C146.934 167.616 115.825 141.718 115.462 121.78C115.729 121.589 115.978 121.399 116.226 121.208Z" fill="url(#paint0_linear_832_773)"/>
<path fill-rule="evenodd" clip-rule="evenodd" d="M123.483 123.494C129.517 124.065 130.167 129.93 132.649 133.967C136.469 140.194 141.491 145.774 147.163 150.154C151.747 153.696 159.309 156.095 161.486 161.96C161.486 162.018 161.486 162.094 161.486 162.151C150.563 161.142 121.707 134.672 123.483 123.494Z" fill="url(#paint1_linear_832_773)"/>
<path fill-rule="evenodd" clip-rule="evenodd" d="M130.358 125.207C130.415 125.207 130.491 125.207 130.549 125.207C132.115 125.15 132.879 125.093 134.445 127.397C136.985 130.578 139.544 133.739 142.083 136.919C144.509 139.89 146.934 142.746 149.474 145.622C151.995 148.478 154.478 151.201 157.094 153.962C157.285 154.21 157.476 154.477 157.667 154.724C157.667 154.972 157.667 155.238 157.667 155.486C151.25 154.286 127.932 131.568 130.358 125.207Z" fill="url(#paint2_linear_832_773)"/>
<path fill-rule="evenodd" clip-rule="evenodd" d="M137.863 127.017C143.764 128.197 152.568 140.823 154.286 146.631C154.038 146.688 153.771 146.764 153.522 146.821C148.653 142.137 137.958 135.11 137.863 127.017Z" fill="url(#paint3_linear_832_773)"/>
<path fill-rule="evenodd" clip-rule="evenodd" d="M221.07 152.629C221.7 152.629 222.349 152.629 222.979 152.629C220.057 159.218 184.747 167.692 182.684 156.438C182.875 156.305 183.066 156.19 183.257 156.057C195.766 156.19 211.597 156.705 221.07 152.629Z" fill="url(#paint4_linear_832_773)"/>
<path fill-rule="evenodd" clip-rule="evenodd" d="M213.43 159.485C213.812 159.485 214.194 159.485 214.576 159.485C214.576 159.675 214.576 159.866 214.576 160.056C214.519 160.113 214.443 160.189 214.385 160.247C209.687 163.274 197.523 170.796 190.323 169.768C188.623 169.501 187.095 168.416 186.389 166.816C185.835 165.579 185.835 164.169 186.312 162.913C189.444 162.989 192.481 162.951 195.555 162.817C197.427 162.741 199.432 162.608 200.903 162.437C205.219 161.941 209.401 160.951 213.43 159.485Z" fill="url(#paint5_linear_832_773)"/>
<path fill-rule="evenodd" clip-rule="evenodd" d="M30.7847 12.9492C31.5295 12.9492 32.2743 12.9492 33.0191 12.9492V34.3345C34.8715 36.2769 36.7431 38.2192 38.5955 40.1616C40.5434 38.2192 42.4913 36.2769 44.4392 34.3345V12.9492C45.2795 12.9492 46.1198 12.9492 46.941 12.9492C46.941 20.0713 46.941 27.2124 46.941 34.3345C48.8889 36.2769 50.8368 38.2192 52.7847 40.1616C54.7326 38.2192 56.6806 36.2769 58.6285 34.3345V12.9492H60.8628V35.1724L52.7847 43.2275L45.8333 36.2959L38.5764 43.2466C35.9792 40.4663 33.3819 37.686 30.7656 34.9058C30.7847 27.5933 30.7847 20.2808 30.7847 12.9492Z" fill="white"/>
<path fill-rule="evenodd" clip-rule="evenodd" d="M30.7847 59.6045C31.5295 59.6045 32.2743 59.6045 33.0191 59.6045V80.9897C34.8715 82.9321 36.7431 84.8745 38.5955 86.8169C40.5434 84.8745 42.4913 82.9321 44.4392 80.9897V59.6045C45.2795 59.6045 46.1198 59.6045 46.941 59.6045C46.941 66.7266 46.941 73.8677 46.941 80.9897C48.8889 82.9321 50.8368 84.8745 52.7847 86.8169C54.7326 84.8745 56.6806 82.9321 58.6285 80.9897V59.6045H60.8628V81.8276L52.7847 89.8828L45.8333 82.9512L38.5764 89.9019C35.9792 87.1216 33.3819 84.3413 30.7656 81.561C30.7847 74.2485 30.7847 66.936 30.7847 59.6045Z" fill="white"/>
<path fill-rule="evenodd" clip-rule="evenodd" d="M66.4395 12.9492V42.6753H68.6738V29.3452H81.2207V42.6753H83.4551V12.9492H81.2207V26.8506H68.6738V12.9492H66.4395Z" fill="white"/>
<path fill-rule="evenodd" clip-rule="evenodd" d="M64.1094 59.6045V89.3306H66.3437V76.0005H78.8906V89.3306H81.125V59.6045H78.8906V73.5059H66.3437V59.6045H64.1094Z" fill="white"/>
<path fill-rule="evenodd" clip-rule="evenodd" d="M84.4287 62.8418V89.1973H86.6631V77.3716H99.1909V89.1973H101.406V62.8418H99.1718V75.1626H86.644V62.8418H84.4287Z" fill="white"/>
<path fill-rule="evenodd" clip-rule="evenodd" d="M89.5659 12.9492H91.9722V42.6753H89.5659V12.9492Z" fill="white"/>
<path fill-rule="evenodd" clip-rule="evenodd" d="M97.0903 12.9492H115.481V15.4438H107.403V42.6753C106.563 42.6753 105.722 42.6753 104.901 42.6753C104.901 33.5918 104.901 24.5273 104.901 15.4438C102.304 15.4438 99.7067 15.4438 97.0903 15.4438V12.9492Z" fill="white"/>
<path fill-rule="evenodd" clip-rule="evenodd" d="M119.931 12.9492C125.22 12.9492 130.51 12.9492 135.819 12.9492C135.819 13.6919 135.819 14.4346 135.819 15.1772C131.274 15.1772 126.71 15.1772 122.165 15.1772C122.165 19.1572 122.165 23.1372 122.165 27.1172H135.819V29.3452H122.165V37.9526C122.165 37.9526 122.509 39.9902 124.399 40.1807C126.29 40.3711 135.266 40.4663 135.266 40.4663V42.6943L124.399 42.4087C124.266 42.3896 124.151 42.3896 124.017 42.3706C123.062 42.2373 122.241 41.8945 121.611 41.3042C120.446 40.2187 120.274 38.6953 120.217 37.686C119.988 33.5918 119.911 21.29 119.931 12.9492Z" fill="white"/>
<path fill-rule="evenodd" clip-rule="evenodd" d="M120.217 59.9092C125.507 59.9092 130.797 59.9092 136.106 59.9092C136.106 60.6519 136.106 61.3945 136.106 62.1372C131.561 62.1372 126.997 62.1372 122.452 62.1372C122.452 66.1172 122.452 70.0972 122.452 74.0771H136.106V76.3052H122.452V84.9126C122.452 84.9126 122.795 86.9502 124.686 87.1406C126.577 87.3311 135.552 87.4263 135.552 87.4263V89.6543L124.686 89.3686C124.552 89.3496 124.438 89.3496 124.304 89.3306C123.349 89.1973 122.528 88.8545 121.898 88.2642C120.733 87.1787 120.561 85.6553 120.504 84.646C120.255 80.5518 120.198 68.231 120.217 59.9092Z" fill="white"/>
<path fill-rule="evenodd" clip-rule="evenodd" d="M104.901 59.4712H107.136V83.5986C107.136 83.5986 107.212 87.0835 109.924 87.0454C112.636 87.0073 118.842 87.0454 118.842 87.0454V89.3496H108.262C108.262 89.3496 104.939 88.5498 104.92 84.4746C104.882 80.3613 104.901 59.4712 104.901 59.4712Z" fill="white"/>
<path fill-rule="evenodd" clip-rule="evenodd" d="M101.406 62.8228C100.413 61.8135 97.224 58.8809 92.7552 58.9189C88.6684 58.957 84.2188 61.4707 84.4097 63.0894C84.4861 63.6797 85.1736 64.0986 85.7657 64.3652C86.0712 63.9844 88.5539 61.0327 92.7361 61.0518C96.6893 61.0708 99.0764 63.7559 99.4202 64.1558" fill="white"/>
<defs>
<linearGradient id="paint0_linear_832_773" x1="116.42" y1="145.391" x2="167.252" y2="145.391" gradientUnits="userSpaceOnUse">
<stop stop-color="#FBD054"/>
<stop offset="1" stop-color="#C99C2C"/>
</linearGradient>
<linearGradient id="paint1_linear_832_773" x1="123.408" y1="142.82" x2="161.49" y2="142.82" gradientUnits="userSpaceOnUse">
<stop stop-color="#FBD054"/>
<stop offset="1" stop-color="#C99C2C"/>
</linearGradient>
<linearGradient id="paint2_linear_832_773" x1="131.776" y1="140.336" x2="159.261" y2="140.336" gradientUnits="userSpaceOnUse">
<stop offset="0.00705268" stop-color="#FBD054"/>
<stop offset="1" stop-color="#C99C2C"/>
</linearGradient>
<linearGradient id="paint3_linear_832_773" x1="138.497" y1="136.915" x2="154.921" y2="136.915" gradientUnits="userSpaceOnUse">
<stop stop-color="#FBD054"/>
<stop offset="1" stop-color="#C99C2C"/>
</linearGradient>
<linearGradient id="paint4_linear_832_773" x1="182.688" y1="157.277" x2="222.983" y2="157.277" gradientUnits="userSpaceOnUse">
<stop stop-color="#C99C2C"/>
<stop offset="1" stop-color="#AE7D2C"/>
</linearGradient>
<linearGradient id="paint5_linear_832_773" x1="185.962" y1="164.672" x2="214.58" y2="164.672" gradientUnits="userSpaceOnUse">
<stop stop-color="#C99C2C"/>
<stop offset="1" stop-color="#AE7D2C"/>
</linearGradient>
</defs>
</svg>
