<svg width="30" height="20" viewBox="0 0 30 20" fill="none" xmlns="http://www.w3.org/2000/svg">
<path d="M27.7532 0H2.24677C1.00588 0 0 1.00594 0 2.24677V6.55171H29.9999V2.24677C29.9999 1.00594 28.9941 0 27.7532 0Z" fill="#73AF00"/>
<path d="M0 17.4084C0 18.6493 1.00588 19.6552 2.24677 19.6552H27.7532C28.994 19.6552 29.9999 18.6493 29.9999 17.4084V13.1035H0V17.4084Z" fill="#FF4B55"/>
<path d="M29.9999 6.55154H0V13.1029H29.9999V6.55154Z" fill="#F5F5F5"/>
<path d="M0.081328 6.20508H0.0858983C0.13084 6.20508 0.167285 6.16869 0.167285 6.12375V5.9475C0.167285 5.90256 0.203671 5.86618 0.248671 5.86618H0.590097C0.635038 5.86618 0.671483 5.90256 0.671483 5.9475V6.12375C0.671483 6.16869 0.70787 6.20508 0.75287 6.20508H1.42681C1.47176 6.20508 1.50814 6.16869 1.50814 6.12375V5.77577C1.50814 5.73082 1.47176 5.69444 1.42681 5.69444H1.08756C1.04262 5.69444 1.00623 5.73082 1.00623 5.77577V5.78473C1.00623 5.82967 1.04262 5.86606 1.08756 5.86606H1.25953C1.30447 5.86606 1.34092 5.90245 1.34092 5.94739V5.95623C1.34092 6.00118 1.30453 6.03756 1.25953 6.03756H0.920155C0.875213 6.03756 0.838768 6.00118 0.838768 5.95623V5.77571C0.838768 5.73077 0.802323 5.69438 0.757381 5.69438H0.081328C0.0363867 5.69438 0 5.73077 0 5.77571V6.12369C0 6.16858 0.0363867 6.20508 0.081328 6.20508ZM0.418183 6.20508H0.422812C0.467753 6.20508 0.50414 6.16869 0.50414 6.12375V6.11912C0.50414 6.07418 0.467753 6.0378 0.422812 6.0378H0.418183C0.373241 6.0378 0.336796 6.07424 0.336796 6.11912V6.12375C0.336796 6.16858 0.373241 6.20508 0.418183 6.20508ZM0.081328 5.52276H2.0983C2.14324 5.52276 2.17968 5.48637 2.17968 5.44143V5.43252C2.17968 5.38758 2.1433 5.3512 2.0983 5.3512H0.081328C0.0363867 5.3512 0 5.38758 0 5.43252V5.44143C0 5.48637 0.0363867 5.52276 0.081328 5.52276ZM2.0983 6.20508H1.75904C1.7141 6.20508 1.67765 6.16869 1.67765 6.12375V5.77577C1.67765 5.73082 1.71404 5.69444 1.75904 5.69444H2.2657C2.31064 5.69444 2.34709 5.65799 2.34709 5.61311V5.43258C2.34709 5.38764 2.38347 5.35126 2.42841 5.35126H2.43292C2.47787 5.35126 2.51431 5.38764 2.51431 5.43258V5.95641C2.51431 6.00135 2.5507 6.03774 2.59564 6.03774H2.60027C2.64521 6.03774 2.6816 6.00135 2.6816 5.95641V5.43258C2.6816 5.38764 2.71798 5.35126 2.76292 5.35126H2.76744C2.81238 5.35126 2.84882 5.38764 2.84882 5.43258V5.95641C2.84882 6.00135 2.88521 6.03774 2.93015 6.03774H2.93689C2.98183 6.03774 3.01828 6.00135 3.01828 5.95641V5.43258C3.01828 5.38764 3.05466 5.35126 3.0996 5.35126H3.10206C3.14701 5.35126 3.18339 5.38764 3.18339 5.43258V6.12381C3.18339 6.16875 3.14701 6.20514 3.10206 6.20514H2.42853C2.38359 6.20514 2.3472 6.16875 2.3472 6.12381V5.94756C2.3472 5.90262 2.31082 5.86623 2.26582 5.86623H1.92656C1.88162 5.86623 1.84517 5.90262 1.84517 5.94756V5.95641C1.84517 6.00135 1.88156 6.03774 1.92656 6.03774H2.09841C2.14336 6.03774 2.1798 6.07418 2.1798 6.11907V6.12369C2.17974 6.16858 2.14324 6.20508 2.0983 6.20508Z" fill="#F5F5F5"/>
<path d="M3.43484 6.20508H3.44158C3.48652 6.20508 3.52297 6.16869 3.52297 6.12375V5.9475C3.52297 5.90256 3.55935 5.86618 3.6043 5.86618H3.94144C3.98639 5.86618 4.02283 5.90256 4.02283 5.9475V6.12375C4.02283 6.16869 4.05922 6.20508 4.10416 6.20508H4.7781C4.82304 6.20508 4.85943 6.16869 4.85943 6.12375V5.77577C4.85943 5.73082 4.82304 5.69444 4.7781 5.69444H4.43885C4.3939 5.69444 4.35746 5.73082 4.35746 5.77577V5.78473C4.35746 5.82967 4.39385 5.86606 4.43885 5.86606H4.61082C4.65576 5.86606 4.69215 5.90245 4.69215 5.94739V5.95623C4.69215 6.00118 4.65576 6.03756 4.61082 6.03756H4.27144C4.2265 6.03756 4.19012 6.00118 4.19012 5.95623V5.77571C4.19012 5.73077 4.15373 5.69438 4.10879 5.69438H3.43484C3.3899 5.69438 3.35352 5.73077 3.35352 5.77571V6.12369C3.35352 6.16858 3.38996 6.20508 3.43484 6.20508ZM3.76959 6.20508H3.77416C3.8191 6.20508 3.85549 6.16869 3.85549 6.12375V6.11912C3.85549 6.07418 3.8191 6.0378 3.77416 6.0378H3.76959C3.72465 6.0378 3.68826 6.07424 3.68826 6.11912V6.12375C3.68826 6.16858 3.72465 6.20508 3.76959 6.20508ZM3.43484 5.52276H5.4497C5.49464 5.52276 5.53109 5.48637 5.53109 5.44143V5.43252C5.53109 5.38758 5.4947 5.3512 5.4497 5.3512H3.43484C3.3899 5.3512 3.35352 5.38758 3.35352 5.43252V5.44143C3.35352 5.48637 3.38996 5.52276 3.43484 5.52276ZM5.44976 6.20508H5.10834C5.06339 6.20508 5.02695 6.16869 5.02695 6.12375V5.77577C5.02695 5.73082 5.06334 5.69444 5.10834 5.69444H5.61505C5.66 5.69444 5.69638 5.65799 5.69638 5.61311V5.43258C5.69638 5.38764 5.73277 5.35126 5.77777 5.35126H5.78451C5.82945 5.35126 5.86583 5.38764 5.86583 5.43258V5.95641C5.86583 6.00135 5.90222 6.03774 5.94722 6.03774H5.95396C5.9989 6.03774 6.03535 6.00135 6.03535 5.95641V5.43258C6.03535 5.38764 6.07173 5.35126 6.11673 5.35126H6.11919C6.16413 5.35126 6.20052 5.38764 6.20052 5.43258V5.95641C6.20052 6.00135 6.23691 6.03774 6.28191 6.03774H6.28865C6.33359 6.03774 6.37003 6.00135 6.37003 5.95641V5.43258C6.37003 5.38764 6.40642 5.35126 6.45136 5.35126H6.45593C6.50087 5.35126 6.53726 5.38764 6.53726 5.43258V6.12381C6.53726 6.16875 6.50087 6.20514 6.45593 6.20514H5.77777C5.73283 6.20514 5.69638 6.16875 5.69638 6.12381V5.94756C5.69638 5.90262 5.66 5.86623 5.61505 5.86623H5.27791C5.23296 5.86623 5.19658 5.90262 5.19658 5.94756V5.95641C5.19658 6.00135 5.23296 6.03774 5.27791 6.03774H5.44988C5.49482 6.03774 5.53127 6.07418 5.53127 6.11907V6.12369C5.53109 6.16858 5.4947 6.20508 5.44976 6.20508Z" fill="#F5F5F5"/>
<path d="M6.78592 6.20508H6.79043C6.83537 6.20508 6.87176 6.16869 6.87176 6.12375V5.9475C6.87176 5.90256 6.90814 5.86618 6.95309 5.86618H7.29246C7.3374 5.86618 7.37379 5.90256 7.37379 5.9475V6.12375C7.37379 6.16869 7.41023 6.20508 7.45517 6.20508H8.13123C8.17617 6.20508 8.21261 6.16869 8.21261 6.12375V5.77577C8.21261 5.73082 8.17623 5.69444 8.13123 5.69444H7.79197C7.74703 5.69444 7.71058 5.73082 7.71058 5.77577V5.78473C7.71058 5.82967 7.74697 5.86606 7.79197 5.86606H7.96394C8.00888 5.86606 8.04533 5.90245 8.04533 5.94739V5.95623C8.04533 6.00118 8.00894 6.03756 7.96394 6.03756H7.62252C7.57758 6.03756 7.54119 6.00118 7.54119 5.95623V5.77571C7.54119 5.73077 7.5048 5.69438 7.45986 5.69438H6.78592C6.74098 5.69438 6.70459 5.73077 6.70459 5.77571V6.12369C6.70447 6.16858 6.74098 6.20508 6.78592 6.20508ZM7.1206 6.20508H7.12517C7.17012 6.20508 7.2065 6.16869 7.2065 6.12375V6.11912C7.2065 6.07418 7.17012 6.0378 7.12517 6.0378H7.1206C7.07566 6.0378 7.03928 6.07424 7.03928 6.11912V6.12375C7.03922 6.16858 7.07566 6.20508 7.1206 6.20508ZM6.78592 5.52276H8.80295C8.84789 5.52276 8.88433 5.48637 8.88433 5.44143V5.43252C8.88433 5.38758 8.84795 5.3512 8.80295 5.3512H6.78592C6.74098 5.3512 6.70459 5.38758 6.70459 5.43252V5.44143C6.70447 5.48637 6.74098 5.52276 6.78592 5.52276ZM8.80295 6.20508H8.46152C8.41658 6.20508 8.38013 6.16869 8.38013 6.12375V5.77577C8.38013 5.73082 8.41652 5.69444 8.46152 5.69444H8.96812C9.01306 5.69444 9.04945 5.65799 9.04945 5.61311V5.43258C9.04945 5.38764 9.08589 5.35126 9.13084 5.35126H9.13546C9.18041 5.35126 9.21679 5.38764 9.21679 5.43258V5.95641C9.21679 6.00135 9.25324 6.03774 9.29818 6.03774H9.30492C9.34986 6.03774 9.3863 6.00135 9.3863 5.95641V5.43258C9.3863 5.38764 9.42269 5.35126 9.46763 5.35126H9.47443C9.51937 5.35126 9.55576 5.38764 9.55576 5.43258V5.95641C9.55576 6.00135 9.5922 6.03774 9.63708 6.03774H9.63955C9.68449 6.03774 9.72093 6.00135 9.72093 5.95641V5.43258C9.72093 5.38764 9.75732 5.35126 9.80226 5.35126H9.80683C9.85177 5.35126 9.88816 5.38764 9.88816 5.43258V6.12381C9.88816 6.16875 9.85171 6.20514 9.80683 6.20514H9.13066C9.08572 6.20514 9.04927 6.16875 9.04927 6.12381V5.94756C9.04927 5.90262 9.01289 5.86623 8.96795 5.86623H8.62869C8.58375 5.86623 8.5473 5.90262 8.5473 5.94756V5.95641C8.5473 6.00135 8.58369 6.03774 8.62869 6.03774H8.80289C8.84783 6.03774 8.88427 6.07418 8.88427 6.11907V6.12369C8.88433 6.16858 8.84789 6.20508 8.80295 6.20508Z" fill="#F5F5F5"/>
<path d="M10.1371 6.20508H10.1416C10.1865 6.20508 10.2229 6.16869 10.2229 6.12375V5.9475C10.2229 5.90256 10.2593 5.86618 10.3042 5.86618H10.6435C10.6884 5.86618 10.7249 5.90256 10.7249 5.9475V6.12375C10.7249 6.16869 10.7612 6.20508 10.8062 6.20508H11.4824C11.5274 6.20508 11.5637 6.16869 11.5637 6.12375V5.77577C11.5637 5.73082 11.5274 5.69444 11.4824 5.69444H11.141C11.0961 5.69444 11.0596 5.73082 11.0596 5.77577V5.78473C11.0596 5.82967 11.0961 5.86606 11.141 5.86606H11.313C11.3579 5.86606 11.3943 5.90245 11.3943 5.94739V5.95623C11.3943 6.00118 11.3579 6.03756 11.313 6.03756H10.9737C10.9288 6.03756 10.8924 6.00118 10.8924 5.95623V5.77571C10.8924 5.73077 10.8559 5.69438 10.811 5.69438H10.1371C10.0921 5.69438 10.0557 5.73077 10.0557 5.77571V6.12369C10.0557 6.16858 10.0922 6.20508 10.1371 6.20508ZM10.4718 6.20508H10.4763C10.5212 6.20508 10.5576 6.16869 10.5576 6.12375V6.11912C10.5576 6.07418 10.5212 6.0378 10.4763 6.0378H10.4718C10.4269 6.0378 10.3904 6.07424 10.3904 6.11912V6.12375C10.3904 6.16858 10.4269 6.20508 10.4718 6.20508ZM10.1371 5.52276H12.1519C12.1969 5.52276 12.2332 5.48637 12.2332 5.44143V5.43252C12.2332 5.38758 12.1969 5.3512 12.1519 5.3512H10.1371C10.0921 5.3512 10.0557 5.38758 10.0557 5.43252V5.44143C10.0557 5.48637 10.0922 5.52276 10.1371 5.52276ZM12.152 6.20508H11.8105C11.7656 6.20508 11.7292 6.16869 11.7292 6.12375V5.77577C11.7292 5.73082 11.7656 5.69444 11.8105 5.69444H12.3215C12.3665 5.69444 12.4029 5.65799 12.4029 5.61311V5.43258C12.4029 5.38764 12.4393 5.35126 12.4843 5.35126H12.4888C12.5338 5.35126 12.5702 5.38764 12.5702 5.43258V5.95641C12.5702 6.00135 12.6065 6.03774 12.6515 6.03774H12.6539C12.6989 6.03774 12.7353 6.00135 12.7353 5.95641V5.43258C12.7353 5.38764 12.7717 5.35126 12.8167 5.35126H12.8235C12.8684 5.35126 12.9048 5.38764 12.9048 5.43258V5.95641C12.9048 6.00135 12.9412 6.03774 12.9861 6.03774H12.9907C13.0357 6.03774 13.0721 6.00135 13.0721 5.95641V5.43258C13.0721 5.38764 13.1085 5.35126 13.1535 5.35126H13.158C13.2029 5.35126 13.2393 5.38764 13.2393 5.43258V6.12381C13.2393 6.16875 13.2029 6.20514 13.158 6.20514H12.4841C12.4391 6.20514 12.4027 6.16875 12.4027 6.12381V5.94756C12.4027 5.90262 12.3664 5.86623 12.3214 5.86623H11.9799C11.935 5.86623 11.8986 5.90262 11.8986 5.94756V5.95641C11.8986 6.00135 11.935 6.03774 11.9799 6.03774H12.1519C12.1969 6.03774 12.2332 6.07418 12.2332 6.11907V6.12369C12.2333 6.16858 12.1969 6.20508 12.152 6.20508Z" fill="#F5F5F5"/>
<path d="M13.4882 6.20508H13.4929C13.5378 6.20508 13.5742 6.16869 13.5742 6.12375V5.9475C13.5742 5.90256 13.6106 5.86618 13.6555 5.86618H13.9948C14.0397 5.86618 14.0761 5.90256 14.0761 5.9475V6.12375C14.0761 6.16869 14.1126 6.20508 14.1575 6.20508H14.8337C14.8786 6.20508 14.915 6.16869 14.915 6.12375V5.77577C14.915 5.73082 14.8786 5.69444 14.8337 5.69444H14.4922C14.4473 5.69444 14.4109 5.73082 14.4109 5.77577V5.78473C14.4109 5.82967 14.4473 5.86606 14.4922 5.86606H14.6663C14.7112 5.86606 14.7476 5.90245 14.7476 5.94739V5.95623C14.7476 6.00118 14.7111 6.03756 14.6663 6.03756H14.327C14.2821 6.03756 14.2457 6.00118 14.2457 5.95623V5.77571C14.2457 5.73077 14.2093 5.69438 14.1643 5.69438H13.4881C13.4432 5.69438 13.4067 5.73077 13.4067 5.77571V6.12369C13.4069 6.16858 13.4433 6.20508 13.4882 6.20508ZM13.8252 6.20508H13.8276C13.8726 6.20508 13.909 6.16869 13.909 6.12375V6.11912C13.909 6.07418 13.8726 6.0378 13.8276 6.0378H13.8252C13.7802 6.0378 13.7438 6.07424 13.7438 6.11912V6.12375C13.7438 6.16858 13.7802 6.20508 13.8252 6.20508ZM13.4882 5.52276H15.5053C15.5503 5.52276 15.5867 5.48637 15.5867 5.44143V5.43252C15.5867 5.38758 15.5502 5.3512 15.5053 5.3512H13.4882C13.4433 5.3512 13.4069 5.38758 13.4069 5.43252V5.44143C13.4069 5.48637 13.4433 5.52276 13.4882 5.52276ZM15.5054 6.20508H15.164C15.119 6.20508 15.0826 6.16869 15.0826 6.12375V5.77577C15.0826 5.73082 15.119 5.69444 15.164 5.69444H15.6728C15.7177 5.69444 15.7541 5.65799 15.7541 5.61311V5.43258C15.7541 5.38764 15.7906 5.35126 15.8355 5.35126H15.84C15.885 5.35126 15.9213 5.38764 15.9213 5.43258V5.95641C15.9213 6.00135 15.9578 6.03774 16.0027 6.03774H16.0073C16.0522 6.03774 16.0886 6.00135 16.0886 5.95641V5.43258C16.0886 5.38764 16.1251 5.35126 16.17 5.35126H16.1745C16.2195 5.35126 16.2559 5.38764 16.2559 5.43258V5.95641C16.2559 6.00135 16.2923 6.03774 16.3372 6.03774H16.3417C16.3866 6.03774 16.423 6.00135 16.423 5.95641V5.43258C16.423 5.38764 16.4595 5.35126 16.5044 5.35126H16.509C16.554 5.35126 16.5904 5.38764 16.5904 5.43258V6.12381C16.5904 6.16875 16.554 6.20514 16.509 6.20514H15.8351C15.7902 6.20514 15.7537 6.16875 15.7537 6.12381V5.94756C15.7537 5.90262 15.7173 5.86623 15.6724 5.86623H15.331C15.286 5.86623 15.2496 5.90262 15.2496 5.94756V5.95641C15.2496 6.00135 15.286 6.03774 15.331 6.03774H15.505C15.5499 6.03774 15.5863 6.07418 15.5863 6.11907V6.12369C15.5867 6.16858 15.5503 6.20508 15.5054 6.20508Z" fill="#F5F5F5"/>
<path d="M16.8397 6.20508H16.8443C16.8893 6.20508 16.9257 6.16869 16.9257 6.12375V5.9475C16.9257 5.90256 16.9621 5.86618 17.0071 5.86618H17.3463C17.3913 5.86618 17.4277 5.90256 17.4277 5.9475V6.12375C17.4277 6.16869 17.4642 6.20508 17.5091 6.20508H18.1852C18.2302 6.20508 18.2666 6.16869 18.2666 6.12375V5.77577C18.2666 5.73082 18.2302 5.69444 18.1852 5.69444H17.8459C17.8009 5.69444 17.7645 5.73082 17.7645 5.77577V5.78473C17.7645 5.82967 17.8009 5.86606 17.8459 5.86606H18.0158C18.0607 5.86606 18.0972 5.90245 18.0972 5.94739V5.95623C18.0972 6.00118 18.0607 6.03756 18.0158 6.03756H17.6786C17.6337 6.03756 17.5972 6.00118 17.5972 5.95623V5.77571C17.5972 5.73077 17.5609 5.69438 17.5159 5.69438H16.8397C16.7948 5.69438 16.7584 5.73077 16.7584 5.77571V6.12369C16.7583 6.16858 16.7947 6.20508 16.8397 6.20508ZM17.1765 6.20508H17.179C17.2239 6.20508 17.2604 6.16869 17.2604 6.12375V6.11912C17.2604 6.07418 17.2239 6.0378 17.179 6.0378H17.1765C17.1316 6.0378 17.0952 6.07424 17.0952 6.11912V6.12375C17.0952 6.16858 17.1316 6.20508 17.1765 6.20508ZM16.8397 5.52276H18.8568C18.9017 5.52276 18.9381 5.48637 18.9381 5.44143V5.43252C18.9381 5.38758 18.9017 5.3512 18.8568 5.3512H16.8397C16.7947 5.3512 16.7583 5.38758 16.7583 5.43252V5.44143C16.7583 5.48637 16.7947 5.52276 16.8397 5.52276ZM18.8568 6.20508H18.5175C18.4726 6.20508 18.4362 6.16869 18.4362 6.12375V5.77577C18.4362 5.73082 18.4726 5.69444 18.5175 5.69444H19.0241C19.0691 5.69444 19.1054 5.65799 19.1054 5.61311V5.43258C19.1054 5.38764 19.1419 5.35126 19.1868 5.35126H19.1915C19.2364 5.35126 19.2728 5.38764 19.2728 5.43258V5.95641C19.2728 6.00135 19.3092 6.03774 19.3542 6.03774H19.3587C19.4036 6.03774 19.4401 6.00135 19.4401 5.95641V5.43258C19.4401 5.38764 19.4765 5.35126 19.5215 5.35126H19.5261C19.571 5.35126 19.6075 5.38764 19.6075 5.43258V5.95641C19.6075 6.00135 19.6439 6.03774 19.6888 6.03774H19.6934C19.7383 6.03774 19.7747 6.00135 19.7747 5.95641V5.43258C19.7747 5.38764 19.8111 5.35126 19.8561 5.35126H19.8607C19.9057 5.35126 19.9421 5.38764 19.9421 5.43258V6.12381C19.9421 6.16875 19.9057 6.20514 19.8607 6.20514H19.1866C19.1417 6.20514 19.1052 6.16875 19.1052 6.12381V5.94756C19.1052 5.90262 19.0688 5.86623 19.0239 5.86623H18.6825C18.6376 5.86623 18.6011 5.90262 18.6011 5.94756V5.95641C18.6011 6.00135 18.6376 6.03774 18.6825 6.03774H18.8565C18.9015 6.03774 18.9379 6.07418 18.9379 6.11907V6.12369C18.9382 6.16858 18.9017 6.20508 18.8568 6.20508Z" fill="#F5F5F5"/>
<path d="M20.1908 6.20508H20.1954C20.2403 6.20508 20.2768 6.16869 20.2768 6.12375V5.9475C20.2768 5.90256 20.3132 5.86618 20.3581 5.86618H20.6995C20.7444 5.86618 20.7809 5.90256 20.7809 5.9475V6.12375C20.7809 6.16869 20.8172 6.20508 20.8622 6.20508H21.5363C21.5812 6.20508 21.6176 6.16869 21.6176 6.12375V5.77577C21.6176 5.73082 21.5812 5.69444 21.5363 5.69444H21.1969C21.152 5.69444 21.1155 5.73082 21.1155 5.77577V5.78473C21.1155 5.82967 21.1519 5.86606 21.1969 5.86606H21.3711C21.4161 5.86606 21.4525 5.90245 21.4525 5.94739V5.95623C21.4525 6.00118 21.4161 6.03756 21.3711 6.03756H21.0275C20.9825 6.03756 20.9461 6.00118 20.9461 5.95623V5.77571C20.9461 5.73077 20.9097 5.69438 20.8648 5.69438H20.1908C20.1459 5.69438 20.1094 5.73077 20.1094 5.77571V6.12369C20.1094 6.16858 20.1458 6.20508 20.1908 6.20508ZM20.5255 6.20508H20.5323C20.5772 6.20508 20.6136 6.16869 20.6136 6.12375V6.11912C20.6136 6.07418 20.5772 6.0378 20.5323 6.0378H20.5255C20.4806 6.0378 20.4442 6.07424 20.4442 6.11912V6.12375C20.4441 6.16858 20.4806 6.20508 20.5255 6.20508ZM20.1908 5.52276H22.2078C22.2527 5.52276 22.2892 5.48637 22.2892 5.44143V5.43252C22.2892 5.38758 22.2528 5.3512 22.2078 5.3512H20.1908C20.1458 5.3512 20.1094 5.38758 20.1094 5.43252V5.44143C20.1094 5.48637 20.1458 5.52276 20.1908 5.52276ZM22.2079 6.20508H21.8686C21.8237 6.20508 21.7873 6.16869 21.7873 6.12375V5.77577C21.7873 5.73082 21.8236 5.69444 21.8686 5.69444H22.3752C22.4202 5.69444 22.4566 5.65799 22.4566 5.61311V5.43258C22.4566 5.38764 22.493 5.35126 22.538 5.35126H22.5426C22.5876 5.35126 22.624 5.38764 22.624 5.43258V5.95641C22.624 6.00135 22.6604 6.03774 22.7054 6.03774H22.7099C22.7548 6.03774 22.7913 6.00135 22.7913 5.95641V5.43258C22.7913 5.38764 22.8277 5.35126 22.8726 5.35126H22.8773C22.9222 5.35126 22.9587 5.38764 22.9587 5.43258V5.95641C22.9587 6.00135 22.9951 6.03774 23.0401 6.03774H23.0468C23.0917 6.03774 23.1281 6.00135 23.1281 5.95641V5.43258C23.1281 5.38764 23.1646 5.35126 23.2095 5.35126H23.2118C23.2568 5.35126 23.2932 5.38764 23.2932 5.43258V6.12381C23.2932 6.16875 23.2568 6.20514 23.2118 6.20514H22.5379C22.493 6.20514 22.4565 6.16875 22.4565 6.12381V5.94756C22.4565 5.90262 22.4201 5.86623 22.3751 5.86623H22.038C21.993 5.86623 21.9566 5.90262 21.9566 5.94756V5.95641C21.9566 6.00135 21.993 6.03774 22.038 6.03774H22.2078C22.2528 6.03774 22.2892 6.07418 22.2892 6.11907V6.12369C22.2892 6.16858 22.2528 6.20508 22.2079 6.20508Z" fill="#F5F5F5"/>
<path d="M23.5443 6.20508H23.5467C23.5917 6.20508 23.6281 6.16869 23.6281 6.12375V5.9475C23.6281 5.90256 23.6645 5.86618 23.7095 5.86618H24.0489C24.0938 5.86618 24.1303 5.90256 24.1303 5.9475V6.12375C24.1303 6.16869 24.1667 6.20508 24.2116 6.20508H24.8877C24.9326 6.20508 24.969 6.16869 24.969 6.12375V5.77577C24.969 5.73082 24.9326 5.69444 24.8877 5.69444H24.5506C24.5057 5.69444 24.4692 5.73082 24.4692 5.77577V5.78473C24.4692 5.82967 24.5057 5.86606 24.5506 5.86606H24.7225C24.7674 5.86606 24.8039 5.90245 24.8039 5.94739V5.95623C24.8039 6.00118 24.7675 6.03756 24.7225 6.03756H24.3812C24.3362 6.03756 24.2998 6.00118 24.2998 5.95623V5.77571C24.2998 5.73077 24.2634 5.69438 24.2184 5.69438H23.5443C23.4993 5.69438 23.4629 5.73077 23.4629 5.77571V6.12369C23.4628 6.16858 23.4993 6.20508 23.5443 6.20508ZM23.879 6.20508H23.8836C23.9285 6.20508 23.9649 6.16869 23.9649 6.12375V6.11912C23.9649 6.07418 23.9285 6.0378 23.8836 6.0378H23.879C23.834 6.0378 23.7976 6.07424 23.7976 6.11912V6.12375C23.7976 6.16858 23.834 6.20508 23.879 6.20508ZM23.5443 5.52276H25.5635C25.6085 5.52276 25.6449 5.48637 25.6449 5.44143V5.43252C25.6449 5.38758 25.6085 5.3512 25.5635 5.3512H23.5443C23.4993 5.3512 23.4629 5.38758 23.4629 5.43252V5.44143C23.4628 5.48637 23.4993 5.52276 23.5443 5.52276ZM25.5635 6.20508H25.2198C25.1749 6.20508 25.1384 6.16869 25.1384 6.12375V5.77577C25.1384 5.73082 25.1749 5.69444 25.2198 5.69444H25.7265C25.7714 5.69444 25.8079 5.65799 25.8079 5.61311V5.43258C25.8079 5.38764 25.8443 5.35126 25.8893 5.35126H25.896C25.9409 5.35126 25.9773 5.38764 25.9773 5.43258V5.95641C25.9773 6.00135 26.0138 6.03774 26.0587 6.03774H26.0632C26.1082 6.03774 26.1446 6.00135 26.1446 5.95641V5.43258C26.1446 5.38764 26.181 5.35126 26.2259 5.35126H26.2284C26.2733 5.35126 26.3098 5.38764 26.3098 5.43258V5.95641C26.3098 6.00135 26.3462 6.03774 26.3912 6.03774H26.3979C26.4428 6.03774 26.4792 6.00135 26.4792 5.95641V5.43258C26.4792 5.38764 26.5156 5.35126 26.5606 5.35126H26.5652C26.6102 5.35126 26.6466 5.38764 26.6466 5.43258V6.12381C26.6466 6.16875 26.6102 6.20514 26.5652 6.20514H25.8891C25.8441 6.20514 25.8077 6.16875 25.8077 6.12381V5.94756C25.8077 5.90262 25.7713 5.86623 25.7263 5.86623H25.387C25.3421 5.86623 25.3057 5.90262 25.3057 5.94756V5.95641C25.3057 6.00135 25.342 6.03774 25.387 6.03774H25.5633C25.6082 6.03774 25.6447 6.07418 25.6447 6.11907V6.12369C25.6449 6.16858 25.6084 6.20508 25.5635 6.20508Z" fill="#F5F5F5"/>
<path d="M26.8954 6.20508H26.9C26.9449 6.20508 26.9814 6.16869 26.9814 6.12375V5.9475C26.9814 5.90256 27.0178 5.86618 27.0628 5.86618H27.402C27.447 5.86618 27.4834 5.90256 27.4834 5.9475V6.12375C27.4834 6.16869 27.5198 6.20508 27.5648 6.20508H28.241C28.2859 6.20508 28.3223 6.16869 28.3223 6.12375V5.77577C28.3223 5.73082 28.286 5.69444 28.241 5.69444H27.9038C27.8589 5.69444 27.8225 5.73082 27.8225 5.77577V5.78473C27.8225 5.82967 27.8589 5.86606 27.9038 5.86606H28.0758C28.1207 5.86606 28.1571 5.90245 28.1571 5.94739V5.95623C28.1571 6.00118 28.1207 6.03756 28.0758 6.03756H27.7321C27.6872 6.03756 27.6507 6.00118 27.6507 5.95623V5.77571C27.6507 5.73077 27.6144 5.69438 27.5694 5.69438H26.8955C26.8505 5.69438 26.8141 5.73077 26.8141 5.77571V6.12369C26.814 6.16858 26.8505 6.20508 26.8954 6.20508ZM27.2301 6.20508H27.2347C27.2797 6.20508 27.3161 6.16869 27.3161 6.12375V6.11912C27.3161 6.07418 27.2797 6.0378 27.2347 6.0378H27.2301C27.1852 6.0378 27.1488 6.07424 27.1488 6.11912V6.12375C27.1488 6.16858 27.1852 6.20508 27.2301 6.20508ZM26.8954 5.52276H28.9103C28.9552 5.52276 28.9917 5.48637 28.9917 5.44143V5.43252C28.9917 5.38758 28.9553 5.3512 28.9103 5.3512H26.8954C26.8504 5.3512 26.814 5.38758 26.814 5.43252V5.44143C26.814 5.48637 26.8505 5.52276 26.8954 5.52276ZM28.9103 6.20508H28.571C28.5261 6.20508 28.4896 6.16869 28.4896 6.12375V5.77577C28.4896 5.73082 28.526 5.69444 28.571 5.69444H29.082C29.1269 5.69444 29.1634 5.65799 29.1634 5.61311V5.43258C29.1634 5.38764 29.1998 5.35126 29.2447 5.35126H29.245C29.2899 5.35126 29.3263 5.38764 29.3263 5.43258V5.95641C29.3263 6.00135 29.3627 6.03774 29.4077 6.03774H29.4166C29.4615 6.03774 29.498 6.00135 29.498 5.95641V5.43258C29.498 5.38764 29.5344 5.35126 29.5794 5.35126H29.5796C29.6245 5.35126 29.661 5.38764 29.661 5.43258V5.95641C29.661 6.00135 29.6974 6.03774 29.7424 6.03774H29.747C29.7919 6.03774 29.8284 6.00135 29.8284 5.95641V5.43258C29.8284 5.38764 29.8648 5.35126 29.9098 5.35126H29.9186C29.9635 5.35126 30 5.38764 30 5.43258V6.12381C30 6.16875 29.9635 6.20514 29.9186 6.20514H29.2447C29.1997 6.20514 29.1633 6.16875 29.1633 6.12381V5.94756C29.1633 5.90262 29.1269 5.86623 29.0819 5.86623H28.7384C28.6934 5.86623 28.657 5.90262 28.657 5.94756V5.95641C28.657 6.00135 28.6934 6.03774 28.7384 6.03774H28.9102C28.9552 6.03774 28.9916 6.07418 28.9916 6.11907V6.12369C28.9917 6.16858 28.9552 6.20508 28.9103 6.20508Z" fill="#F5F5F5"/>
<path d="M0.081328 6.72417H1.42681C1.47176 6.72417 1.50814 6.68778 1.50814 6.64284V6.46231C1.50814 6.41737 1.47176 6.38098 1.42681 6.38098H0.081328C0.0363867 6.38098 0 6.41743 0 6.46231V6.64284C0 6.68778 0.0363867 6.72417 0.081328 6.72417ZM1.7591 6.72417H3.10247C3.14742 6.72417 3.1838 6.68778 3.1838 6.64284V6.46231C3.1838 6.41737 3.14742 6.38098 3.10247 6.38098H1.7591C1.71416 6.38098 1.67771 6.41743 1.67771 6.46231V6.64284C1.67765 6.68778 1.71416 6.72417 1.7591 6.72417Z" fill="#F5F5F5"/>
<path d="M3.43484 6.72417H4.77822C4.82316 6.72417 4.85955 6.68778 4.85955 6.64284V6.46231C4.85955 6.41737 4.82316 6.38098 4.77822 6.38098H3.43484C3.3899 6.38098 3.35352 6.41743 3.35352 6.46231V6.64284C3.35352 6.68778 3.38996 6.72417 3.43484 6.72417ZM5.10834 6.72417H6.45599C6.50093 6.72417 6.53732 6.68778 6.53732 6.64284V6.46231C6.53732 6.41737 6.50093 6.38098 6.45599 6.38098H5.10834C5.06339 6.38098 5.02695 6.41743 5.02695 6.46231V6.64284C5.02695 6.68778 5.06339 6.72417 5.10834 6.72417Z" fill="#F5F5F5"/>
<path d="M6.78592 6.72417H8.1314C8.17634 6.72417 8.21279 6.68778 8.21279 6.64284V6.46231C8.21279 6.41737 8.1764 6.38098 8.1314 6.38098H6.78592C6.74098 6.38098 6.70459 6.41743 6.70459 6.46231V6.64284C6.70447 6.68778 6.74098 6.72417 6.78592 6.72417ZM8.46146 6.72417H9.80695C9.85189 6.72417 9.88828 6.68778 9.88828 6.64284V6.46231C9.88828 6.41737 9.85183 6.38098 9.80695 6.38098H8.46146C8.41652 6.38098 8.38007 6.41743 8.38007 6.46231V6.64284C8.38007 6.68778 8.41658 6.72417 8.46146 6.72417Z" fill="#F5F5F5"/>
<path d="M10.1371 6.72417H11.4825C11.5275 6.72417 11.5639 6.68778 11.5639 6.64284V6.46231C11.5639 6.41737 11.5275 6.38098 11.4825 6.38098H10.1371C10.0921 6.38098 10.0557 6.41743 10.0557 6.46231V6.64284C10.0557 6.68778 10.0922 6.72417 10.1371 6.72417ZM11.8105 6.72417H13.1582C13.2031 6.72417 13.2395 6.68778 13.2395 6.64284V6.46231C13.2395 6.41737 13.2031 6.38098 13.1582 6.38098H11.8105C11.7656 6.38098 11.7292 6.41743 11.7292 6.46231V6.64284C11.7292 6.68778 11.7655 6.72417 11.8105 6.72417Z" fill="#F5F5F5"/>
<path d="M13.4881 6.72417H14.8337C14.8787 6.72417 14.9151 6.68778 14.9151 6.64284V6.46231C14.9151 6.41737 14.8787 6.38098 14.8337 6.38098H13.4881C13.4432 6.38098 13.4067 6.41743 13.4067 6.46231V6.64284C13.4068 6.68778 13.4432 6.72417 13.4881 6.72417ZM15.1637 6.72417H16.5093C16.5543 6.72417 16.5907 6.68778 16.5907 6.64284V6.46231C16.5907 6.41737 16.5543 6.38098 16.5093 6.38098H15.1637C15.1188 6.38098 15.0824 6.41743 15.0824 6.46231V6.64284C15.0824 6.68778 15.1188 6.72417 15.1637 6.72417Z" fill="#F5F5F5"/>
<path d="M16.8397 6.72417H18.1853C18.2302 6.72417 18.2667 6.68778 18.2667 6.64284V6.46231C18.2667 6.41737 18.2303 6.38098 18.1853 6.38098H16.8397C16.7947 6.38098 16.7583 6.41743 16.7583 6.46231V6.64284C16.7583 6.68778 16.7947 6.72417 16.8397 6.72417ZM18.5175 6.72417H19.8609C19.9058 6.72417 19.9423 6.68778 19.9423 6.64284V6.46231C19.9423 6.41737 19.9058 6.38098 19.8609 6.38098H18.5175C18.4726 6.38098 18.4362 6.41743 18.4362 6.46231V6.64284C18.4361 6.68778 18.4726 6.72417 18.5175 6.72417Z" fill="#F5F5F5"/>
<path d="M20.1908 6.72417H21.5364C21.5813 6.72417 21.6177 6.68778 21.6177 6.64284V6.46231C21.6177 6.41737 21.5813 6.38098 21.5364 6.38098H20.1908C20.1458 6.38098 20.1094 6.41743 20.1094 6.46231V6.64284C20.1094 6.68778 20.1458 6.72417 20.1908 6.72417ZM21.8686 6.72417H23.2118C23.2568 6.72417 23.2932 6.68778 23.2932 6.64284V6.46231C23.2932 6.41737 23.2568 6.38098 23.2118 6.38098H21.8686C21.8236 6.38098 21.7872 6.41743 21.7872 6.46231V6.64284C21.7873 6.68778 21.8236 6.72417 21.8686 6.72417Z" fill="#F5F5F5"/>
<path d="M23.5443 6.72417H24.8877C24.9326 6.72417 24.969 6.68778 24.969 6.64284V6.46231C24.969 6.41737 24.9326 6.38098 24.8877 6.38098H23.5443C23.4993 6.38098 23.4629 6.41743 23.4629 6.46231V6.64284C23.4628 6.68778 23.4993 6.72417 23.5443 6.72417ZM25.2199 6.72417H26.5655C26.6104 6.72417 26.6469 6.68778 26.6469 6.64284V6.46231C26.6469 6.41737 26.6105 6.38098 26.5655 6.38098H25.2199C25.1749 6.38098 25.1385 6.41743 25.1385 6.46231V6.64284C25.1384 6.68778 25.1749 6.72417 25.2199 6.72417Z" fill="#F5F5F5"/>
<path d="M26.8954 6.72417H28.241C28.2859 6.72417 28.3223 6.68778 28.3223 6.64284V6.46231C28.3223 6.41737 28.286 6.38098 28.241 6.38098H26.8954C26.8504 6.38098 26.814 6.41743 26.814 6.46231V6.64284C26.814 6.68778 26.8505 6.72417 26.8954 6.72417ZM28.5711 6.72417H29.9187C29.9637 6.72417 30.0001 6.68778 30.0001 6.64284V6.46231C30.0001 6.41737 29.9637 6.38098 29.9187 6.38098H28.5711C28.5261 6.38098 28.4897 6.41743 28.4897 6.46231V6.64284C28.4896 6.68778 28.5261 6.72417 28.5711 6.72417Z" fill="#F5F5F5"/>
<path d="M29.9186 13.4502H29.9141C29.8692 13.4502 29.8328 13.4866 29.8328 13.5315V13.7077C29.8328 13.7527 29.7964 13.7891 29.7514 13.7891H29.41C29.3651 13.7891 29.3286 13.7527 29.3286 13.7077V13.5315C29.3286 13.4866 29.2922 13.4502 29.2472 13.4502H28.5733C28.5283 13.4502 28.492 13.4866 28.492 13.5315V13.8795C28.492 13.9244 28.5283 13.9609 28.5733 13.9609H28.9125C28.9575 13.9609 28.9939 13.9244 28.9939 13.8795V13.8706C28.9939 13.8256 28.9575 13.7892 28.9125 13.7892H28.7406C28.6956 13.7892 28.6592 13.7528 28.6592 13.7079V13.699C28.6592 13.6541 28.6956 13.6177 28.7406 13.6177H29.0799C29.1249 13.6177 29.1613 13.6541 29.1613 13.699V13.8795C29.1613 13.9245 29.1977 13.9609 29.2427 13.9609H29.9187C29.9636 13.9609 30.0001 13.9245 30.0001 13.8795V13.5316C30 13.4866 29.9636 13.4502 29.9186 13.4502ZM29.5819 13.4502H29.5772C29.5323 13.4502 29.4958 13.4866 29.4958 13.5315V13.5361C29.4958 13.5811 29.5322 13.6175 29.5772 13.6175H29.5819C29.6268 13.6175 29.6632 13.5811 29.6632 13.5361V13.5315C29.6632 13.4866 29.6268 13.4502 29.5819 13.4502ZM29.9186 14.1324H27.9017C27.8567 14.1324 27.8203 14.1688 27.8203 14.2138V14.2227C27.8203 14.2677 27.8567 14.304 27.9017 14.304H29.9186C29.9636 14.304 30 14.2676 30 14.2227V14.2138C30 14.1689 29.9636 14.1324 29.9186 14.1324ZM27.9017 13.4502H28.241C28.2859 13.4502 28.3224 13.4866 28.3224 13.5315V13.8795C28.3224 13.9244 28.286 13.9609 28.241 13.9609H27.7343C27.6894 13.9609 27.653 13.9973 27.653 14.0422V14.2227C27.653 14.2677 27.6166 14.304 27.5716 14.304H27.5671C27.5222 14.304 27.4857 14.2676 27.4857 14.2227V13.6989C27.4857 13.654 27.4493 13.6176 27.4044 13.6176H27.3998C27.3548 13.6176 27.3184 13.654 27.3184 13.6989V14.2227C27.3184 14.2677 27.2819 14.304 27.2371 14.304H27.2325C27.1875 14.304 27.1511 14.2676 27.1511 14.2227V13.6989C27.1511 13.654 27.1147 13.6176 27.0697 13.6176H27.063C27.018 13.6176 26.9816 13.654 26.9816 13.6989V14.2227C26.9816 14.2677 26.9452 14.304 26.9002 14.304H26.8977C26.8528 14.304 26.8164 14.2676 26.8164 14.2227V13.5315C26.8164 13.4866 26.8528 13.4502 26.8977 13.4502H27.5717C27.6166 13.4502 27.6531 13.4866 27.6531 13.5315V13.7077C27.6531 13.7527 27.6895 13.7891 27.7344 13.7891H28.0737C28.1186 13.7891 28.155 13.7527 28.155 13.7077V13.6989C28.155 13.654 28.1186 13.6176 28.0737 13.6176H27.9018C27.8569 13.6176 27.8204 13.5811 27.8204 13.5362V13.5316C27.8203 13.4866 27.8568 13.4502 27.9017 13.4502Z" fill="#F5F5F5"/>
<path d="M26.5653 13.4502H26.5586C26.5136 13.4502 26.4772 13.4866 26.4772 13.5315V13.7077C26.4772 13.7527 26.4408 13.7891 26.3959 13.7891H26.0587C26.0138 13.7891 25.9773 13.7527 25.9773 13.7077V13.5315C25.9773 13.4866 25.9409 13.4502 25.896 13.4502H25.222C25.1771 13.4502 25.1407 13.4866 25.1407 13.5315V13.8795C25.1407 13.9244 25.1771 13.9609 25.222 13.9609H25.5613C25.6062 13.9609 25.6427 13.9244 25.6427 13.8795V13.8706C25.6427 13.8256 25.6062 13.7892 25.5613 13.7892H25.3893C25.3444 13.7892 25.308 13.7528 25.308 13.7079V13.699C25.308 13.6541 25.3444 13.6177 25.3893 13.6177H25.7287C25.7736 13.6177 25.81 13.6541 25.81 13.699V13.8795C25.81 13.9245 25.8465 13.9609 25.8914 13.9609H26.5654C26.6103 13.9609 26.6468 13.9245 26.6468 13.8795V13.5316C26.6466 13.4866 26.6102 13.4502 26.5653 13.4502ZM26.2306 13.4502H26.2261C26.1811 13.4502 26.1447 13.4866 26.1447 13.5315V13.5361C26.1447 13.5811 26.1811 13.6175 26.2261 13.6175H26.2306C26.2755 13.6175 26.312 13.5811 26.312 13.5361V13.5315C26.3119 13.4866 26.2755 13.4502 26.2306 13.4502ZM26.5653 14.1324H24.5504C24.5055 14.1324 24.4691 14.1688 24.4691 14.2138V14.2227C24.4691 14.2677 24.5055 14.304 24.5504 14.304H26.5653C26.6102 14.304 26.6467 14.2676 26.6467 14.2227V14.2138C26.6466 14.1689 26.6102 14.1324 26.5653 14.1324ZM24.5504 13.4502H24.8918C24.9368 13.4502 24.9732 13.4866 24.9732 13.5315V13.8795C24.9732 13.9244 24.9368 13.9609 24.8918 13.9609H24.3852C24.3402 13.9609 24.3038 13.9973 24.3038 14.0422V14.2227C24.3038 14.2677 24.2674 14.304 24.2224 14.304H24.2156C24.1707 14.304 24.1343 14.2676 24.1343 14.2227V13.6989C24.1343 13.654 24.0978 13.6176 24.0529 13.6176H24.0461C24.0012 13.6176 23.9647 13.654 23.9647 13.6989V14.2227C23.9647 14.2677 23.9284 14.304 23.8834 14.304H23.881C23.836 14.304 23.7996 14.2676 23.7996 14.2227V13.6989C23.7996 13.654 23.7632 13.6176 23.7182 13.6176H23.7115C23.6666 13.6176 23.6301 13.654 23.6301 13.6989V14.2227C23.6301 14.2677 23.5937 14.304 23.5488 14.304H23.5442C23.4993 14.304 23.4629 14.2676 23.4629 14.2227V13.5315C23.4629 13.4866 23.4993 13.4502 23.5442 13.4502H24.2224C24.2674 13.4502 24.3038 13.4866 24.3038 13.5315V13.7077C24.3038 13.7527 24.3402 13.7891 24.3852 13.7891H24.7224C24.7673 13.7891 24.8037 13.7527 24.8037 13.7077V13.6989C24.8037 13.654 24.7674 13.6176 24.7224 13.6176H24.5504C24.5054 13.6176 24.469 13.5811 24.469 13.5362V13.5316C24.469 13.4866 24.5054 13.4502 24.5504 13.4502Z" fill="#F5F5F5"/>
<path d="M23.2141 13.4502H23.2096C23.1647 13.4502 23.1282 13.4866 23.1282 13.5315V13.7077C23.1282 13.7527 23.0918 13.7891 23.0469 13.7891H22.7075C22.6626 13.7891 22.6261 13.7527 22.6261 13.7077V13.5315C22.6261 13.4866 22.5897 13.4502 22.5447 13.4502H21.8687C21.8237 13.4502 21.7873 13.4866 21.7873 13.5315V13.8795C21.7873 13.9244 21.8237 13.9609 21.8687 13.9609H22.2079C22.2529 13.9609 22.2893 13.9244 22.2893 13.8795V13.8706C22.2893 13.8256 22.2529 13.7892 22.2079 13.7892H22.036C21.991 13.7892 21.9546 13.7528 21.9546 13.7079V13.699C21.9546 13.6541 21.991 13.6177 22.036 13.6177H22.3774C22.4223 13.6177 22.4588 13.6541 22.4588 13.699V13.8795C22.4588 13.9245 22.4952 13.9609 22.5401 13.9609H23.2141C23.259 13.9609 23.2954 13.9245 23.2954 13.8795V13.5316C23.2956 13.4866 23.2591 13.4502 23.2141 13.4502ZM22.8794 13.4502H22.8749C22.83 13.4502 22.7935 13.4866 22.7935 13.5315V13.5361C22.7935 13.5811 22.83 13.6175 22.8749 13.6175H22.8794C22.9244 13.6175 22.9608 13.5811 22.9608 13.5361V13.5315C22.9608 13.4866 22.9244 13.4502 22.8794 13.4502ZM23.2141 14.1324H21.1971C21.1521 14.1324 21.1157 14.1688 21.1157 14.2138V14.2227C21.1157 14.2677 21.1521 14.304 21.1971 14.304H23.2141C23.2591 14.304 23.2955 14.2676 23.2955 14.2227V14.2138C23.2956 14.1689 23.2591 14.1324 23.2141 14.1324ZM21.1971 13.4502H21.5385C21.5835 13.4502 21.6199 13.4866 21.6199 13.5315V13.8795C21.6199 13.9244 21.5835 13.9609 21.5385 13.9609H21.0319C20.987 13.9609 20.9506 13.9973 20.9506 14.0422V14.2227C20.9506 14.2677 20.9141 14.304 20.8692 14.304H20.8646C20.8196 14.304 20.7832 14.2676 20.7832 14.2227V13.6989C20.7832 13.654 20.7468 13.6176 20.7019 13.6176H20.6951C20.6502 13.6176 20.6137 13.654 20.6137 13.6989V14.2227C20.6137 14.2677 20.5773 14.304 20.5324 14.304H20.5256C20.4807 14.304 20.4443 14.2676 20.4443 14.2227V13.6989C20.4443 13.654 20.4078 13.6176 20.3629 13.6176H20.3604C20.3155 13.6176 20.279 13.654 20.279 13.6989V14.2227C20.279 14.2677 20.2427 14.304 20.1977 14.304H20.1931C20.1482 14.304 20.1118 14.2676 20.1118 14.2227V13.5315C20.1118 13.4866 20.1482 13.4502 20.1931 13.4502H20.8693C20.9143 13.4502 20.9507 13.4866 20.9507 13.5315V13.7077C20.9507 13.7527 20.9871 13.7891 21.032 13.7891H21.3713C21.4162 13.7891 21.4526 13.7527 21.4526 13.7077V13.6989C21.4526 13.654 21.4162 13.6176 21.3713 13.6176H21.1971C21.1521 13.6176 21.1157 13.5811 21.1157 13.5362V13.5316C21.1157 13.4866 21.1521 13.4502 21.1971 13.4502Z" fill="#F5F5F5"/>
<path d="M19.8627 13.4502H19.8582C19.8132 13.4502 19.7768 13.4866 19.7768 13.5315V13.7077C19.7768 13.7527 19.7403 13.7891 19.6954 13.7891H19.3562C19.3112 13.7891 19.2749 13.7527 19.2749 13.7077V13.5315C19.2749 13.4866 19.2384 13.4502 19.1935 13.4502H18.5173C18.4724 13.4502 18.436 13.4866 18.436 13.5315V13.8795C18.436 13.9244 18.4724 13.9609 18.5173 13.9609H18.8587C18.9037 13.9609 18.9401 13.9244 18.9401 13.8795V13.8706C18.9401 13.8256 18.9037 13.7892 18.8587 13.7892H18.6868C18.6418 13.7892 18.6054 13.7528 18.6054 13.7079V13.699C18.6054 13.6541 18.6418 13.6177 18.6868 13.6177H19.026C19.071 13.6177 19.1073 13.6541 19.1073 13.699V13.8795C19.1073 13.9245 19.1438 13.9609 19.1887 13.9609H19.8627C19.9076 13.9609 19.9441 13.9245 19.9441 13.8795V13.5316C19.944 13.4866 19.9076 13.4502 19.8627 13.4502ZM19.5279 13.4502H19.5234C19.4785 13.4502 19.4421 13.4866 19.4421 13.5315V13.5361C19.4421 13.5811 19.4785 13.6175 19.5234 13.6175H19.5279C19.5729 13.6175 19.6093 13.5811 19.6093 13.5361V13.5315C19.6093 13.4866 19.5729 13.4502 19.5279 13.4502ZM19.8627 14.1324H17.8478C17.8028 14.1324 17.7664 14.1688 17.7664 14.2138V14.2227C17.7664 14.2677 17.8028 14.304 17.8478 14.304H19.8627C19.9076 14.304 19.9441 14.2676 19.9441 14.2227V14.2138C19.944 14.1689 19.9076 14.1324 19.8627 14.1324ZM17.8478 13.4502H18.1892C18.2341 13.4502 18.2706 13.4866 18.2706 13.5315V13.8795C18.2706 13.9244 18.2341 13.9609 18.1892 13.9609H17.6782C17.6332 13.9609 17.5968 13.9973 17.5968 14.0422V14.2227C17.5968 14.2677 17.5604 14.304 17.5155 14.304H17.511C17.466 14.304 17.4296 14.2676 17.4296 14.2227V13.6989C17.4296 13.654 17.3931 13.6176 17.3482 13.6176H17.3457C17.3008 13.6176 17.2643 13.654 17.2643 13.6989V14.2227C17.2643 14.2677 17.2279 14.304 17.1829 14.304H17.1762C17.1313 14.304 17.0949 14.2676 17.0949 14.2227V13.6989C17.0949 13.654 17.0584 13.6176 17.0135 13.6176H17.0089C16.9639 13.6176 16.9275 13.654 16.9275 13.6989V14.2227C16.9275 14.2677 16.8911 14.304 16.8462 14.304H16.8416C16.7967 14.304 16.7603 14.2676 16.7603 14.2227V13.5315C16.7603 13.4866 16.7967 13.4502 16.8416 13.4502H17.5156C17.5605 13.4502 17.5969 13.4866 17.5969 13.5315V13.7077C17.5969 13.7527 17.6334 13.7891 17.6783 13.7891H18.0197C18.0647 13.7891 18.1011 13.7527 18.1011 13.7077V13.6989C18.1011 13.654 18.0647 13.6176 18.0197 13.6176H17.8478C17.8028 13.6176 17.7664 13.5811 17.7664 13.5362V13.5316C17.7664 13.4866 17.8028 13.4502 17.8478 13.4502Z" fill="#F5F5F5"/>
<path d="M16.5115 13.4502H16.5068C16.4619 13.4502 16.4255 13.4866 16.4255 13.5315V13.7077C16.4255 13.7527 16.3891 13.7891 16.3442 13.7891H16.0049C15.96 13.7891 15.9236 13.7527 15.9236 13.7077V13.5315C15.9236 13.4866 15.8872 13.4502 15.8422 13.4502H15.1661C15.1211 13.4502 15.0847 13.4866 15.0847 13.5315V13.8795C15.0847 13.9244 15.1211 13.9609 15.1661 13.9609H15.5075C15.5524 13.9609 15.5889 13.9244 15.5889 13.8795V13.8706C15.5889 13.8256 15.5524 13.7892 15.5075 13.7892H15.3335C15.2885 13.7892 15.2521 13.7528 15.2521 13.7079V13.699C15.2521 13.6541 15.2886 13.6177 15.3335 13.6177H15.6727C15.7176 13.6177 15.754 13.6541 15.754 13.699V13.8795C15.754 13.9245 15.7905 13.9609 15.8354 13.9609H16.5116C16.5565 13.9609 16.593 13.9245 16.593 13.8795V13.5316C16.5928 13.4866 16.5564 13.4502 16.5115 13.4502ZM16.1746 13.4502H16.1721C16.1272 13.4502 16.0907 13.4866 16.0907 13.5315V13.5361C16.0907 13.5811 16.1271 13.6175 16.1721 13.6175H16.1746C16.2195 13.6175 16.2559 13.5811 16.2559 13.5361V13.5315C16.2559 13.4866 16.2195 13.4502 16.1746 13.4502ZM16.5115 14.1324H14.4945C14.4495 14.1324 14.4131 14.1688 14.4131 14.2138V14.2227C14.4131 14.2677 14.4496 14.304 14.4945 14.304H16.5115C16.5564 14.304 16.5929 14.2676 16.5929 14.2227V14.2138C16.5928 14.1689 16.5564 14.1324 16.5115 14.1324ZM14.4943 13.4502H14.8358C14.8807 13.4502 14.9171 13.4866 14.9171 13.5315V13.8795C14.9171 13.9244 14.8807 13.9609 14.8358 13.9609H14.3269C14.282 13.9609 14.2456 13.9973 14.2456 14.0422V14.2227C14.2456 14.2677 14.2092 14.304 14.1642 14.304H14.1597C14.1148 14.304 14.0783 14.2676 14.0783 14.2227V13.6989C14.0783 13.654 14.0419 13.6176 13.997 13.6176H13.9924C13.9474 13.6176 13.911 13.654 13.911 13.6989V14.2227C13.911 14.2677 13.8746 14.304 13.8296 14.304H13.8251C13.7802 14.304 13.7438 14.2676 13.7438 14.2227V13.6989C13.7438 13.654 13.7074 13.6176 13.6625 13.6176H13.6579C13.613 13.6176 13.5766 13.654 13.5766 13.6989V14.2227C13.5766 14.2677 13.5402 14.304 13.4952 14.304H13.4906C13.4456 14.304 13.4092 14.2676 13.4092 14.2227V13.5315C13.4092 13.4866 13.4456 13.4502 13.4906 13.4502H14.1645C14.2095 13.4502 14.2459 13.4866 14.2459 13.5315V13.7077C14.2459 13.7527 14.2823 13.7891 14.3272 13.7891H14.6686C14.7136 13.7891 14.75 13.7527 14.75 13.7077V13.6989C14.75 13.654 14.7136 13.6176 14.6686 13.6176H14.4946C14.4497 13.6176 14.4133 13.5811 14.4133 13.5362V13.5316C14.413 13.4866 14.4494 13.4502 14.4943 13.4502Z" fill="#F5F5F5"/>
<path d="M13.1604 13.4502H13.1558C13.1108 13.4502 13.0744 13.4866 13.0744 13.5315V13.7077C13.0744 13.7527 13.038 13.7891 12.9931 13.7891H12.6538C12.6089 13.7891 12.5725 13.7527 12.5725 13.7077V13.5315C12.5725 13.4866 12.536 13.4502 12.4911 13.4502H11.815C11.77 13.4502 11.7336 13.4866 11.7336 13.5315V13.8795C11.7336 13.9244 11.77 13.9609 11.815 13.9609H12.1544C12.1993 13.9609 12.2357 13.9244 12.2357 13.8795V13.8706C12.2357 13.8256 12.1993 13.7892 12.1544 13.7892H11.9845C11.9395 13.7892 11.9031 13.7528 11.9031 13.7079V13.699C11.9031 13.6541 11.9395 13.6177 11.9845 13.6177H12.3216C12.3666 13.6177 12.403 13.6541 12.403 13.699V13.8795C12.403 13.9245 12.4394 13.9609 12.4844 13.9609H13.1605C13.2055 13.9609 13.2419 13.9245 13.2419 13.8795V13.5316C13.2418 13.4866 13.2053 13.4502 13.1604 13.4502ZM12.8235 13.4502H12.8211C12.7761 13.4502 12.7397 13.4866 12.7397 13.5315V13.5361C12.7397 13.5811 12.7761 13.6175 12.8211 13.6175H12.8235C12.8685 13.6175 12.9049 13.5811 12.9049 13.5361V13.5315C12.9049 13.4866 12.8685 13.4502 12.8235 13.4502ZM13.1604 14.1324H11.1433C11.0984 14.1324 11.062 14.1688 11.062 14.2138V14.2227C11.062 14.2677 11.0984 14.304 11.1433 14.304H13.1603C13.2053 14.304 13.2417 14.2676 13.2417 14.2227V14.2138C13.2418 14.1689 13.2053 14.1324 13.1604 14.1324ZM11.1433 13.4502H11.4826C11.5275 13.4502 11.5639 13.4866 11.5639 13.5315V13.8795C11.5639 13.9244 11.5275 13.9609 11.4826 13.9609H10.976C10.931 13.9609 10.8946 13.9973 10.8946 14.0422V14.2227C10.8946 14.2677 10.8583 14.304 10.8133 14.304H10.8086C10.7637 14.304 10.7273 14.2676 10.7273 14.2227V13.6989C10.7273 13.654 10.6909 13.6176 10.646 13.6176H10.6414C10.5965 13.6176 10.5601 13.654 10.5601 13.6989V14.2227C10.5601 14.2677 10.5237 14.304 10.4787 14.304H10.4741C10.4291 14.304 10.3927 14.2676 10.3927 14.2227V13.6989C10.3927 13.654 10.3563 13.6176 10.3113 13.6176H10.3068C10.2619 13.6176 10.2255 13.654 10.2255 13.6989V14.2227C10.2255 14.2677 10.1891 14.304 10.1441 14.304H10.1395C10.0946 14.304 10.0581 14.2676 10.0581 14.2227V13.5315C10.0581 13.4866 10.0946 13.4502 10.1395 13.4502H10.8136C10.8586 13.4502 10.895 13.4866 10.895 13.5315V13.7077C10.895 13.7527 10.9314 13.7891 10.9763 13.7891H11.3176C11.3626 13.7891 11.399 13.7527 11.399 13.7077V13.6989C11.399 13.654 11.3626 13.6176 11.3176 13.6176H11.1436C11.0987 13.6176 11.0623 13.5811 11.0623 13.5362V13.5316C11.0619 13.4866 11.0984 13.4502 11.1433 13.4502Z" fill="#F5F5F5"/>
<path d="M9.80939 13.4502H9.80476C9.75982 13.4502 9.72337 13.4866 9.72337 13.5315V13.7077C9.72337 13.7527 9.68699 13.7891 9.64205 13.7891H9.30068C9.25574 13.7891 9.21929 13.7527 9.21929 13.7077V13.5315C9.21929 13.4866 9.18291 13.4502 9.13796 13.4502H8.46385C8.4189 13.4502 8.38246 13.4866 8.38246 13.5315V13.8795C8.38246 13.9244 8.41885 13.9609 8.46385 13.9609H8.80322C8.84816 13.9609 8.88461 13.9244 8.88461 13.8795V13.8706C8.88461 13.8256 8.84822 13.7892 8.80322 13.7892H8.62902C8.58408 13.7892 8.54763 13.7528 8.54763 13.7079V13.699C8.54763 13.6541 8.58402 13.6177 8.62902 13.6177H8.97267C9.01761 13.6177 9.054 13.6541 9.054 13.699V13.8795C9.054 13.9245 9.09045 13.9609 9.13539 13.9609H9.80933C9.85427 13.9609 9.89072 13.9245 9.89072 13.8795V13.5316C9.89078 13.4866 9.85433 13.4502 9.80939 13.4502ZM9.47464 13.4502H9.46785C9.42291 13.4502 9.38652 13.4866 9.38652 13.5315V13.5361C9.38652 13.5811 9.42291 13.6175 9.46785 13.6175H9.47464C9.51959 13.6175 9.55597 13.5811 9.55597 13.5361V13.5315C9.55603 13.4866 9.51959 13.4502 9.47464 13.4502ZM9.80939 14.1324H7.79236C7.74742 14.1324 7.71098 14.1688 7.71098 14.2138V14.2227C7.71098 14.2677 7.74736 14.304 7.79236 14.304H9.80939C9.85433 14.304 9.89078 14.2676 9.89078 14.2227V14.2138C9.89078 14.1689 9.85433 14.1324 9.80939 14.1324ZM7.79224 13.4502H8.1315C8.17644 13.4502 8.21289 13.4866 8.21289 13.5315V13.8795C8.21289 13.9244 8.1765 13.9609 8.1315 13.9609H7.6249C7.57996 13.9609 7.54357 13.9973 7.54357 14.0422V14.2227C7.54357 14.2677 7.50719 14.304 7.46219 14.304H7.45756C7.41262 14.304 7.37617 14.2676 7.37617 14.2227V13.6989C7.37617 13.654 7.33978 13.6176 7.29484 13.6176H7.29027C7.24533 13.6176 7.20894 13.654 7.20894 13.6989V14.2227C7.20894 14.2677 7.17256 14.304 7.12756 14.304H7.12293C7.07799 14.304 7.04154 14.2676 7.04154 14.2227V13.6989C7.04154 13.654 7.00516 13.6176 6.96016 13.6176H6.95342C6.90848 13.6176 6.87209 13.654 6.87209 13.6989V14.2227C6.87209 14.2677 6.8357 14.304 6.79076 14.304H6.78842C6.74348 14.304 6.70703 14.2676 6.70703 14.2227V13.5315C6.70703 13.4866 6.74342 13.4502 6.78842 13.4502H7.46236C7.5073 13.4502 7.54375 13.4866 7.54375 13.5315V13.7077C7.54375 13.7527 7.58014 13.7891 7.62508 13.7891H7.96222C8.00717 13.7891 8.04361 13.7527 8.04361 13.7077V13.6989C8.04361 13.654 8.00722 13.6176 7.96222 13.6176H7.79236C7.74742 13.6176 7.71098 13.5811 7.71098 13.5362V13.5316C7.71092 13.4866 7.7473 13.4502 7.79224 13.4502Z" fill="#F5F5F5"/>
<path d="M6.45581 13.4502H6.45335C6.40841 13.4502 6.37197 13.4866 6.37197 13.5315V13.7077C6.37197 13.7527 6.33558 13.7891 6.29064 13.7891H5.95126C5.90632 13.7891 5.86994 13.7527 5.86994 13.7077V13.5315C5.86994 13.4866 5.83355 13.4502 5.78861 13.4502H5.1125C5.06756 13.4502 5.03117 13.4866 5.03117 13.5315V13.8795C5.03117 13.9244 5.06756 13.9609 5.1125 13.9609H5.44953C5.49447 13.9609 5.53091 13.9244 5.53091 13.8795V13.8706C5.53091 13.8256 5.49453 13.7892 5.44953 13.7892H5.27767C5.23273 13.7892 5.19634 13.7528 5.19634 13.7079V13.699C5.19634 13.6541 5.23273 13.6177 5.27767 13.6177H5.6191C5.66404 13.6177 5.70048 13.6541 5.70048 13.699V13.8795C5.70048 13.9245 5.73687 13.9609 5.78181 13.9609H6.45593C6.50087 13.9609 6.53732 13.9245 6.53732 13.8795V13.5316C6.53726 13.4866 6.50076 13.4502 6.45581 13.4502ZM6.12113 13.4502H6.1165C6.07156 13.4502 6.03511 13.4866 6.03511 13.5315V13.5361C6.03511 13.5811 6.0715 13.6175 6.1165 13.6175H6.12113C6.16607 13.6175 6.20246 13.5811 6.20246 13.5361V13.5315C6.20251 13.4866 6.16607 13.4502 6.12113 13.4502ZM6.45581 14.1324H4.43662C4.39168 14.1324 4.35529 14.1688 4.35529 14.2138V14.2227C4.35529 14.2677 4.39168 14.304 4.43662 14.304H6.45587C6.50081 14.304 6.53726 14.2676 6.53726 14.2227V14.2138C6.53726 14.1689 6.50076 14.1324 6.45581 14.1324ZM4.43662 13.4502H4.78027C4.82521 13.4502 4.86166 13.4866 4.86166 13.5315V13.8795C4.86166 13.9244 4.82527 13.9609 4.78027 13.9609H4.27355C4.22861 13.9609 4.19222 13.9973 4.19222 14.0422V14.2227C4.19222 14.2677 4.15584 14.304 4.11084 14.304H4.1041C4.05916 14.304 4.02277 14.2676 4.02277 14.2227V13.6989C4.02277 13.654 3.98639 13.6176 3.94139 13.6176H3.93687C3.89193 13.6176 3.85549 13.654 3.85549 13.6989V14.2227C3.85549 14.2677 3.8191 14.304 3.77416 14.304H3.77164C3.7267 14.304 3.69025 14.2676 3.69025 14.2227V13.6989C3.69025 13.654 3.65387 13.6176 3.60893 13.6176H3.60219C3.55725 13.6176 3.5208 13.654 3.5208 13.6989V14.2227C3.5208 14.2677 3.48441 14.304 3.43947 14.304H3.43484C3.3899 14.304 3.35352 14.2676 3.35352 14.2227V13.5315C3.35352 13.4866 3.3899 13.4502 3.43484 13.4502H4.11101C4.15596 13.4502 4.1924 13.4866 4.1924 13.5315V13.7077C4.1924 13.7527 4.22879 13.7891 4.27373 13.7891H4.61299C4.65793 13.7891 4.69431 13.7527 4.69431 13.7077V13.6989C4.69431 13.654 4.65793 13.6176 4.61299 13.6176H4.43668C4.39174 13.6176 4.35535 13.5811 4.35535 13.5362V13.5316C4.35517 13.4866 4.39168 13.4502 4.43662 13.4502Z" fill="#F5F5F5"/>
<path d="M3.10464 13.4502H3.10001C3.05507 13.4502 3.01869 13.4866 3.01869 13.5315V13.7077C3.01869 13.7527 2.9823 13.7891 2.9373 13.7891H2.59804C2.5531 13.7891 2.51666 13.7527 2.51666 13.7077V13.5315C2.51666 13.4866 2.48027 13.4502 2.43533 13.4502H1.7591C1.71416 13.4502 1.67771 13.4866 1.67771 13.5315V13.8795C1.67771 13.9244 1.7141 13.9609 1.7591 13.9609H2.09625C2.14119 13.9609 2.17757 13.9244 2.17757 13.8795V13.8706C2.17757 13.8256 2.14119 13.7892 2.09625 13.7892H1.92427C1.87933 13.7892 1.84289 13.7528 1.84289 13.7079V13.699C1.84289 13.6541 1.87933 13.6177 1.92427 13.6177H2.26793C2.31287 13.6177 2.34931 13.6541 2.34931 13.699V13.8795C2.34931 13.9245 2.3857 13.9609 2.43064 13.9609H3.10458C3.14953 13.9609 3.18591 13.9245 3.18591 13.8795V13.5316C3.18603 13.4866 3.14958 13.4502 3.10464 13.4502ZM2.76996 13.4502H2.76533C2.72039 13.4502 2.684 13.4866 2.684 13.5315V13.5361C2.684 13.5811 2.72039 13.6175 2.76533 13.6175H2.76996C2.8149 13.6175 2.85128 13.5811 2.85128 13.5361V13.5315C2.85128 13.4866 2.8149 13.4502 2.76996 13.4502ZM3.10464 14.1324H1.08978C1.04484 14.1324 1.0084 14.1688 1.0084 14.2138V14.2227C1.0084 14.2677 1.04484 14.304 1.08978 14.304H3.10464C3.14958 14.304 3.18597 14.2676 3.18597 14.2227V14.2138C3.18603 14.1689 3.14958 14.1324 3.10464 14.1324ZM1.08978 13.4502H1.42904C1.47398 13.4502 1.51043 13.4866 1.51043 13.5315V13.8795C1.51043 13.9244 1.47404 13.9609 1.42904 13.9609H0.918162C0.873221 13.9609 0.836776 13.9973 0.836776 14.0422V14.2227C0.836776 14.2677 0.800389 14.304 0.755389 14.304H0.755155C0.710213 14.304 0.673768 14.2676 0.673768 14.2227V13.6989C0.673768 13.654 0.637382 13.6176 0.592382 13.6176H0.583358C0.538417 13.6176 0.501972 13.654 0.501972 13.6989V14.2227C0.501972 14.2677 0.465585 14.304 0.420585 14.304H0.420409C0.375468 14.304 0.339081 14.2676 0.339081 14.2227V13.6989C0.339081 13.654 0.302636 13.6176 0.257695 13.6176H0.252949C0.208007 13.6176 0.171562 13.654 0.171562 13.6989V14.2227C0.171562 14.2677 0.135176 14.304 0.0902342 14.304H0.081328C0.0363867 14.304 0 14.2676 0 14.2227V13.5315C0 13.4866 0.0363867 13.4502 0.081328 13.4502H0.755272C0.800213 13.4502 0.836659 13.4866 0.836659 13.5315V13.7077C0.836659 13.7527 0.873045 13.7891 0.918045 13.7891H1.26164C1.30658 13.7891 1.34297 13.7527 1.34297 13.7077V13.6989C1.34297 13.654 1.30658 13.6176 1.26164 13.6176H1.08984C1.0449 13.6176 1.00846 13.5811 1.00846 13.5362V13.5316C1.0084 13.4866 1.04484 13.4502 1.08978 13.4502Z" fill="#F5F5F5"/>
<path d="M29.9183 12.931H28.5728C28.5279 12.931 28.4915 12.9675 28.4915 13.0124V13.1929C28.4915 13.2379 28.5279 13.2743 28.5728 13.2743H29.9183C29.9633 13.2743 29.9997 13.2379 29.9997 13.1929V13.0124C29.9997 12.9675 29.9633 12.931 29.9183 12.931ZM28.2406 12.931H26.8972C26.8523 12.931 26.8159 12.9675 26.8159 13.0124V13.1929C26.8159 13.2379 26.8523 13.2743 26.8972 13.2743H28.2406C28.2856 13.2743 28.322 13.2379 28.322 13.1929V13.0124C28.322 12.9675 28.2856 12.931 28.2406 12.931Z" fill="#F5F5F5"/>
<path d="M26.5654 12.931H25.222C25.177 12.931 25.1406 12.9675 25.1406 13.0124V13.1929C25.1406 13.2379 25.177 13.2743 25.222 13.2743H26.5654C26.6103 13.2743 26.6468 13.2379 26.6468 13.1929V13.0124C26.6467 12.9675 26.6102 12.931 26.5654 12.931ZM24.8919 12.931H23.5442C23.4993 12.931 23.4629 12.9675 23.4629 13.0124V13.1929C23.4629 13.2379 23.4993 13.2743 23.5442 13.2743H24.8919C24.9368 13.2743 24.9733 13.2379 24.9733 13.1929V13.0124C24.9733 12.9675 24.9368 12.931 24.8919 12.931Z" fill="#F5F5F5"/>
<path d="M23.2142 12.931H21.8687C21.8237 12.931 21.7873 12.9675 21.7873 13.0124V13.1929C21.7873 13.2379 21.8237 13.2743 21.8687 13.2743H23.2142C23.2591 13.2743 23.2956 13.2379 23.2956 13.1929V13.0124C23.2956 12.9675 23.2591 12.931 23.2142 12.931ZM21.5386 12.931H20.1931C20.1482 12.931 20.1118 12.9675 20.1118 13.0124V13.1929C20.1118 13.2379 20.1482 13.2743 20.1931 13.2743H21.5386C21.5836 13.2743 21.62 13.2379 21.62 13.1929V13.0124C21.62 12.9675 21.5835 12.931 21.5386 12.931Z" fill="#F5F5F5"/>
<path d="M19.8628 12.931H18.5173C18.4724 12.931 18.436 12.9675 18.436 13.0124V13.1929C18.436 13.2379 18.4724 13.2743 18.5173 13.2743H19.8628C19.9077 13.2743 19.9442 13.2379 19.9442 13.1929V13.0124C19.9441 12.9675 19.9077 12.931 19.8628 12.931ZM18.1893 12.931H16.8416C16.7967 12.931 16.7603 12.9675 16.7603 13.0124V13.1929C16.7603 13.2379 16.7967 13.2743 16.8416 13.2743H18.1893C18.2342 13.2743 18.2707 13.2379 18.2707 13.1929V13.0124C18.2707 12.9675 18.2343 12.931 18.1893 12.931Z" fill="#F5F5F5"/>
<path d="M16.5118 12.931H15.1662C15.1212 12.931 15.0848 12.9675 15.0848 13.0124V13.1929C15.0848 13.2379 15.1212 13.2743 15.1662 13.2743H16.5118C16.5567 13.2743 16.5932 13.2379 16.5932 13.1929V13.0124C16.5931 12.9675 16.5567 12.931 16.5118 12.931ZM14.8362 12.931H13.4906C13.4456 12.931 13.4092 12.9675 13.4092 13.0124V13.1929C13.4092 13.2379 13.4456 13.2743 13.4906 13.2743H14.8362C14.8811 13.2743 14.9175 13.2379 14.9175 13.1929V13.0124C14.9175 12.9675 14.8811 12.931 14.8362 12.931Z" fill="#F5F5F5"/>
<path d="M13.1602 12.931H11.8146C11.7697 12.931 11.7333 12.9675 11.7333 13.0124V13.1929C11.7333 13.2379 11.7697 13.2743 11.8146 13.2743H13.1602C13.2051 13.2743 13.2416 13.2379 13.2416 13.1929V13.0124C13.2416 12.9675 13.2051 12.931 13.1602 12.931ZM11.4824 12.931H10.139C10.0941 12.931 10.0576 12.9675 10.0576 13.0124V13.1929C10.0576 13.2379 10.0941 13.2743 10.139 13.2743H11.4824C11.5273 13.2743 11.5637 13.2379 11.5637 13.1929V13.0124C11.5638 12.9675 11.5273 12.931 11.4824 12.931Z" fill="#F5F5F5"/>
<path d="M9.80902 12.931H8.46342C8.41847 12.931 8.38203 12.9675 8.38203 13.0124V13.1929C8.38203 13.2379 8.41842 13.2743 8.46342 13.2743H9.80902C9.85396 13.2743 9.89041 13.2379 9.89041 13.1929V13.0124C9.89041 12.9675 9.85396 12.931 9.80902 12.931ZM8.13119 12.931H6.78793C6.74299 12.931 6.70654 12.9675 6.70654 13.0124V13.1929C6.70654 13.2379 6.74293 13.2743 6.78793 13.2743H8.13119C8.17613 13.2743 8.21258 13.2379 8.21258 13.1929V13.0124C8.21252 12.9675 8.17613 12.931 8.13119 12.931Z" fill="#F5F5F5"/>
<path d="M6.45605 12.931H5.11273C5.06779 12.931 5.0314 12.9675 5.0314 13.0124V13.1929C5.0314 13.2379 5.06779 13.2743 5.11273 13.2743H6.45611C6.50105 13.2743 6.53749 13.2379 6.53749 13.1929V13.0124C6.53749 12.9675 6.50099 12.931 6.45605 12.931ZM4.78045 12.931H3.43484C3.3899 12.931 3.35352 12.9675 3.35352 13.0124V13.1929C3.35352 13.2379 3.3899 13.2743 3.43484 13.2743H4.78045C4.82539 13.2743 4.86183 13.2379 4.86183 13.1929V13.0124C4.86183 12.9675 4.82539 12.931 4.78045 12.931Z" fill="#F5F5F5"/>
<path d="M3.10464 12.931H1.7591C1.71416 12.931 1.67771 12.9675 1.67771 13.0124V13.1929C1.67771 13.2379 1.7141 13.2743 1.7591 13.2743H3.1047C3.14964 13.2743 3.18603 13.2379 3.18603 13.1929V13.0124C3.18603 12.9675 3.14958 12.931 3.10464 12.931ZM1.42898 12.931H0.081328C0.0363867 12.931 0 12.9675 0 13.0124V13.1929C0 13.2379 0.0363867 13.2743 0.081328 13.2743H1.42898C1.47392 13.2743 1.51037 13.2379 1.51037 13.1929V13.0124C1.51043 12.9675 1.47398 12.931 1.42898 12.931Z" fill="#F5F5F5"/>
<path d="M14.572 7.3827C14.7255 7.4236 14.8892 7.37854 15.0017 7.26399C15.1715 7.43591 15.4498 7.44001 15.6257 7.27225C15.7403 7.16175 15.7873 6.99393 15.7464 6.84253C15.5971 7.08399 15.282 7.16175 15.0406 7.01028C15.0283 7.00202 15.0119 6.99388 15.0017 6.98573C14.7747 7.15348 14.4535 7.10849 14.2816 6.88349C14.2753 6.87112 14.2632 6.85478 14.255 6.84259C14.1935 7.07989 14.3367 7.32534 14.572 7.3827Z" fill="#FF4B55"/>
<path d="M15.5251 12.1628C16.0751 11.8609 16.534 11.3851 16.7857 10.7585C17.2143 9.68452 16.9444 8.47222 16.1246 7.68589C16.0964 7.65888 16.0536 7.69504 16.074 7.72832C16.8826 9.04685 16.564 10.7795 15.3129 11.729L15.3727 7.89888C15.3735 7.84691 15.3503 7.7974 15.31 7.76464L15.1065 7.60017C15.0441 7.54978 14.9551 7.55007 14.8931 7.60076L14.6926 7.76464C14.6525 7.79734 14.6297 7.84656 14.6305 7.89824L14.6886 11.7311C13.4373 10.7822 13.1181 9.04785 13.9254 7.72843C13.9458 7.69515 13.903 7.659 13.8748 7.68607C13.0566 8.4724 12.785 9.68464 13.2135 10.7586C13.4652 11.3851 13.9241 11.8609 14.4742 12.1628C14.1241 12.2827 13.7562 12.3464 13.3841 12.3358C13.3448 12.3347 13.3369 12.39 13.3746 12.4013C13.8473 12.5448 14.3335 12.5547 14.7907 12.4522L14.9701 12.8004C14.9825 12.8244 15.0169 12.8246 15.0294 12.8005L15.2101 12.4524C15.6673 12.5547 16.1537 12.5447 16.6267 12.4012C16.6644 12.3898 16.6565 12.3345 16.6172 12.3356C16.2447 12.3464 15.8758 12.2827 15.5251 12.1628Z" fill="#FF4B55"/>
<path d="M17.764 8.60213C17.4825 8.07626 17.0151 7.67764 16.4586 7.48235C16.4237 7.47011 16.3965 7.51616 16.425 7.53966C17.6535 8.55163 17.8997 10.354 16.9496 11.6589C16.9005 11.7244 16.8473 11.794 16.7961 11.8512C17.9625 11.2251 18.3943 9.76838 17.764 8.60213Z" fill="#FF4B55"/>
<path d="M13.052 11.6589C12.102 10.354 12.3463 8.55167 13.5746 7.5397C13.6031 7.5162 13.5758 7.47021 13.541 7.4824C12.9852 7.67775 12.521 8.07624 12.2377 8.60212C11.6035 9.76837 12.0393 11.2251 13.2075 11.8511C13.1523 11.7939 13.0991 11.7244 13.052 11.6589Z" fill="#FF4B55"/>
</svg>
