<svg width="106" height="76" viewBox="0 0 106 76" fill="none" xmlns="http://www.w3.org/2000/svg">
<path fill-rule="evenodd" clip-rule="evenodd" d="M55.8413 4.16911C62.0687 4.13959 65.0794 9.1573 64.601 15.2376C64.0636 15.6951 63.725 15.7541 63.1287 15.3114C63.1803 14.3005 63.2244 13.2969 63.276 12.286C62.7607 8.9802 61.6344 6.84768 58.7857 5.86627C57.9907 5.59325 56.3713 5.16527 55.3996 5.57111C55.4217 7.41586 55.4511 9.2606 55.4732 11.1054C55.8928 20.152 62.0467 19.997 71.0787 18.9271C71.5499 19.2665 71.8296 19.4657 71.6676 20.2553C71.4983 20.3512 71.3217 20.4545 71.1524 20.5505C69.7317 20.4988 68.3036 20.4545 66.8829 20.4029C58.2925 20.4029 56.2535 20.8678 55.6204 28.5935C55.6719 30.4383 55.7161 32.283 55.7676 34.1278C59.8383 34.7993 62.5987 31.9731 63.3496 28.9625C63.8133 27.1104 62.5325 23.8562 64.4537 23.871C64.601 24.0407 64.7482 24.2178 64.8954 24.3875C64.7114 30.9327 62.1865 36.6662 54.7371 35.0871C54.6635 33.9286 54.5899 32.7774 54.5163 31.6189C53.8096 25.5313 55.1788 21.9377 58.8593 19.8126C58.1011 19.2222 57.3356 18.6319 56.5774 18.0416C54.5604 15.5918 54.369 12.4926 54.2954 7.93239C54.2807 6.81078 53.9495 5.06196 54.5899 4.39047C55.0094 4.31669 55.429 4.2429 55.8413 4.16911Z" fill="#EEEEEE"/>
<path fill-rule="evenodd" clip-rule="evenodd" d="M59.1537 9.18683C59.3966 9.20897 59.6469 9.23848 59.8898 9.26062C60.015 9.4082 60.1327 9.55578 60.2579 9.70336C59.8088 14.271 59.6763 17.0381 65.1898 16.492C65.9628 16.4182 66.2057 16.0345 67.0301 16.1231C67.1773 16.3666 67.3246 16.6175 67.4718 16.861C67.3466 17.1045 67.2289 17.3554 67.1037 17.5989C64.1814 18.2556 59.7794 17.289 59.0801 15.09C59.058 13.9094 59.0286 12.7287 59.0065 11.5481C58.9329 10.8619 58.8593 10.1682 58.7856 9.48199C58.9108 9.38606 59.0359 9.28276 59.1537 9.18683Z" fill="#EEEEEE"/>
<path fill-rule="evenodd" clip-rule="evenodd" d="M68.8707 16.861C81.3257 16.7208 89.548 24.7934 92.4998 34.2754C94.7891 41.6175 93.0298 51.9333 88.8929 56.0434C86.022 58.8991 79.3382 57.9324 74.2443 58.5523C72.772 58.6039 71.2998 58.6482 69.8276 58.6998C68.267 58.021 67.6929 54.8775 65.3373 54.3462C65.3373 54.3684 65.3373 54.3979 65.3373 54.42C66.125 55.6745 66.9052 56.9289 67.6929 58.1833C70.2987 62.714 71.7194 67.0012 75.5693 70.2111C75.5693 70.2848 75.5693 70.3586 75.5693 70.4324C75.5472 70.4324 75.5177 70.4324 75.4957 70.4324C69.0989 68.6762 64.1669 63.4814 61.2887 58.1095C59.5809 54.9218 58.3664 51.6529 55.6943 49.4761C53.6994 47.8453 51.0641 47.1812 48.1123 46.4507C46.8609 46.1408 45.0869 46.1998 44.2109 45.4915C44.233 45.3217 44.2625 45.1446 44.2845 44.9749C46.2426 43.6541 50.8948 44.4215 53.3387 44.8273C56.769 45.3955 59.765 45.853 62.8345 46.7459C66.574 47.838 71.3514 50.6051 76.2318 49.1809C88.753 45.5283 86.5226 27.686 78.2193 21.2146C76.6882 20.0266 74.8037 19.0747 72.8457 18.3368C71.6826 17.9014 69.3418 17.8129 68.5762 16.9348C68.6793 16.9126 68.775 16.8831 68.8707 16.861Z" fill="white"/>
<path fill-rule="evenodd" clip-rule="evenodd" d="M74.8332 21.8049C75.1056 21.8566 75.3706 21.9008 75.643 21.9525C75.7387 22.2476 75.8417 22.5428 75.9374 22.838C75.8123 22.9855 75.6945 23.1331 75.5694 23.2807C74.87 23.6939 73.9646 23.0593 72.7721 23.0593C68.8781 23.0519 61.3035 21.9894 60.3318 24.8303C59.8386 26.2692 60.4938 28.6305 60.6263 29.7004C60.457 29.8996 60.2803 30.0915 60.111 30.2907C59.8681 30.2686 59.6178 30.2391 59.3749 30.2169C59.2498 30.0694 59.132 29.9218 59.0068 29.7742C59.5663 20.3439 61.1489 22.1001 70.5638 22.1001C71.9624 22.1001 73.9057 22.2993 74.8332 21.8049Z" fill="#EEEEEE"/>
<path fill-rule="evenodd" clip-rule="evenodd" d="M44.7998 46.9672C47.31 47.7125 47.6633 50.3985 48.8484 52.4277C51.3365 56.6927 54.9802 59.8952 59.4484 62.1679C60.7808 62.8468 64.3362 64.1308 64.0859 65.7099C56.6365 64.9498 44.6452 54.9144 44.5054 47.1886C44.6084 47.1148 44.7041 47.041 44.7998 46.9672Z" fill="url(#paint0_linear_806_397)"/>
<path fill-rule="evenodd" clip-rule="evenodd" d="M47.5971 47.8527C49.9232 48.0741 50.1735 50.3468 51.1305 51.9112C52.6027 54.3241 54.5387 56.4861 56.7249 58.1833C58.4916 59.5558 61.4066 60.4855 62.2457 62.7583C62.2457 62.7804 62.2457 62.8099 62.2457 62.8321C58.0352 62.441 46.9126 52.1842 47.5971 47.8527Z" fill="url(#paint1_linear_806_397)"/>
<path fill-rule="evenodd" clip-rule="evenodd" d="M50.2471 48.5168C50.2692 48.5168 50.2986 48.5168 50.3207 48.5168C50.9243 48.4947 51.2188 48.4726 51.8224 49.3654C52.8014 50.5977 53.7878 51.8226 54.7668 53.0549C55.7017 54.206 56.6365 55.3129 57.6156 56.4271C58.5872 57.5339 59.5442 58.5891 60.5526 59.6591C60.6262 59.755 60.6999 59.8583 60.7735 59.9542C60.7735 60.0502 60.7735 60.1535 60.7735 60.2494C58.3001 59.7845 49.3122 50.9814 50.2471 48.5168Z" fill="url(#paint2_linear_806_397)"/>
<path fill-rule="evenodd" clip-rule="evenodd" d="M53.1396 49.2178C55.4142 49.6753 58.8077 54.5676 59.4702 56.8182C59.3745 56.8403 59.2714 56.8699 59.1758 56.892C57.2987 55.0768 53.1765 52.3539 53.1396 49.2178Z" fill="url(#paint3_linear_806_397)"/>
<path fill-rule="evenodd" clip-rule="evenodd" d="M85.2124 59.1426C85.4553 59.1426 85.7056 59.1426 85.9485 59.1426C84.8222 61.6957 71.2115 64.9793 70.4165 60.6184C70.4901 60.5667 70.5637 60.5224 70.6373 60.4708C75.4589 60.5224 81.5612 60.7217 85.2124 59.1426Z" fill="url(#paint4_linear_806_397)"/>
<path fill-rule="evenodd" clip-rule="evenodd" d="M82.268 61.799C82.4152 61.799 82.5624 61.799 82.7097 61.799C82.7097 61.8728 82.7097 61.9466 82.7097 62.0204C82.6876 62.0425 82.6581 62.072 82.6361 62.0941C80.8252 63.2674 76.1362 66.1821 73.361 65.7836C72.7059 65.6803 72.117 65.2597 71.8447 64.6399C71.6312 64.1603 71.6312 63.6142 71.8152 63.1272C73.0224 63.1567 74.1929 63.142 75.378 63.0903C76.0994 63.0608 76.8723 63.0091 77.4391 62.9427C79.1027 62.7509 80.7148 62.3672 82.268 61.799Z" fill="url(#paint5_linear_806_397)"/>
<path fill-rule="evenodd" clip-rule="evenodd" d="M11.8662 5.0177C12.1533 5.0177 12.4404 5.0177 12.7275 5.0177V13.3043C13.4415 14.057 14.1629 14.8096 14.8769 15.5623C15.6278 14.8096 16.3786 14.057 17.1294 13.3043V5.0177C17.4533 5.0177 17.7772 5.0177 18.0937 5.0177C18.0937 7.77744 18.0937 10.5446 18.0937 13.3043C18.8446 14.057 19.5954 14.8096 20.3462 15.5623C21.0971 14.8096 21.8479 14.057 22.5987 13.3043V5.0177H23.46V13.629L20.3462 16.7503L17.6668 14.0643L14.8696 16.7577C13.8685 15.6803 12.8674 14.603 11.8589 13.5257C11.8662 10.6921 11.8662 7.85861 11.8662 5.0177Z" fill="white"/>
<path fill-rule="evenodd" clip-rule="evenodd" d="M11.8662 23.0962C12.1533 23.0962 12.4404 23.0962 12.7275 23.0962V31.3828C13.4415 32.1355 14.1629 32.8881 14.8769 33.6408C15.6278 32.8881 16.3786 32.1355 17.1294 31.3828V23.0962C17.4533 23.0962 17.7772 23.0962 18.0937 23.0962C18.0937 25.856 18.0937 28.6231 18.0937 31.3828C18.8446 32.1355 19.5954 32.8881 20.3462 33.6408C21.0971 32.8881 21.8479 32.1355 22.5987 31.3828V23.0962H23.46V31.7075L20.3462 34.8288L17.6668 32.1429L14.8696 34.8362C13.8685 33.7589 12.8674 32.6815 11.8589 31.6042C11.8662 28.7707 11.8662 25.9371 11.8662 23.0962Z" fill="white"/>
<path fill-rule="evenodd" clip-rule="evenodd" d="M25.6094 5.0177V16.5363H26.4706V11.371H31.3069V16.5363H32.1681V5.0177H31.3069V10.4044H26.4706V5.0177H25.6094Z" fill="white"/>
<path fill-rule="evenodd" clip-rule="evenodd" d="M24.7114 23.0962V34.6148H25.5727V29.4495H30.4089V34.6148H31.2702V23.0962H30.4089V28.4829H25.5727V23.0962H24.7114Z" fill="white"/>
<path fill-rule="evenodd" clip-rule="evenodd" d="M32.5435 24.3506V34.5632H33.4047V29.9808H38.2336V34.5632H39.0875V24.3506H38.2262V29.1248H33.3973V24.3506H32.5435Z" fill="white"/>
<path fill-rule="evenodd" clip-rule="evenodd" d="M34.5239 5.0177H35.4514V16.5363H34.5239V5.0177Z" fill="white"/>
<path fill-rule="evenodd" clip-rule="evenodd" d="M37.4238 5.0177H44.5126V5.98435H41.3988V16.5363C41.0749 16.5363 40.7511 16.5363 40.4345 16.5363C40.4345 13.0165 40.4345 9.50412 40.4345 5.98435C39.4334 5.98435 38.4323 5.98435 37.4238 5.98435V5.0177Z" fill="white"/>
<path fill-rule="evenodd" clip-rule="evenodd" d="M46.2281 5.0177C48.2672 5.0177 50.3062 5.0177 52.3526 5.0177C52.3526 5.30548 52.3526 5.59326 52.3526 5.88104C50.6006 5.88104 48.8413 5.88104 47.0894 5.88104C47.0894 7.42325 47.0894 8.96546 47.0894 10.5077H52.3526V11.371H47.0894V14.7063C47.0894 14.7063 47.2219 15.4959 47.9506 15.5696C48.6794 15.6434 52.1391 15.6803 52.1391 15.6803V16.5437L47.9506 16.433C47.8991 16.4256 47.8549 16.4256 47.8034 16.4182C47.4354 16.3666 47.1188 16.2338 46.8759 16.005C46.4269 15.5844 46.3606 14.9941 46.3386 14.603C46.2502 13.0165 46.2208 8.2497 46.2281 5.0177Z" fill="white"/>
<path fill-rule="evenodd" clip-rule="evenodd" d="M46.3382 23.2143C48.3772 23.2143 50.4163 23.2143 52.4627 23.2143C52.4627 23.502 52.4627 23.7898 52.4627 24.0776C50.7107 24.0776 48.9514 24.0776 47.1995 24.0776C47.1995 25.6198 47.1995 27.162 47.1995 28.7042H52.4627V29.5676H47.1995V32.9029C47.1995 32.9029 47.332 33.6924 48.0607 33.7662C48.7895 33.84 52.2492 33.8769 52.2492 33.8769V34.7402L48.0607 34.6296C48.0092 34.6222 47.965 34.6222 47.9135 34.6148C47.5454 34.5631 47.2289 34.4303 46.986 34.2016C46.537 33.781 46.4707 33.1907 46.4486 32.7996C46.3529 31.2131 46.3309 26.4389 46.3382 23.2143Z" fill="white"/>
<path fill-rule="evenodd" clip-rule="evenodd" d="M40.4349 23.0446H41.2962V32.3937C41.2962 32.3937 41.3256 33.7441 42.3709 33.7293C43.4162 33.7146 45.8086 33.7293 45.8086 33.7293V34.6222H41.7305C41.7305 34.6222 40.4497 34.3123 40.4423 32.7332C40.4276 31.1393 40.4349 23.0446 40.4349 23.0446Z" fill="white"/>
<path fill-rule="evenodd" clip-rule="evenodd" d="M39.0874 24.3433C38.7046 23.9522 37.4753 22.8158 35.7528 22.8306C34.1775 22.8453 32.4624 23.8194 32.536 24.4466C32.5654 24.6753 32.8304 24.8377 33.0586 24.941C33.1764 24.7934 34.1333 23.6497 35.7454 23.657C37.2692 23.6644 38.1893 24.7049 38.3218 24.8598" fill="white"/>
<defs>
<linearGradient id="paint0_linear_806_397" x1="44.8748" y1="56.3378" x2="64.468" y2="56.3378" gradientUnits="userSpaceOnUse">
<stop stop-color="#FBD054"/>
<stop offset="1" stop-color="#C99C2C"/>
</linearGradient>
<linearGradient id="paint1_linear_806_397" x1="47.5684" y1="55.3417" x2="62.2472" y2="55.3417" gradientUnits="userSpaceOnUse">
<stop stop-color="#FBD054"/>
<stop offset="1" stop-color="#C99C2C"/>
</linearGradient>
<linearGradient id="paint2_linear_806_397" x1="50.7937" y1="54.3789" x2="61.3878" y2="54.3789" gradientUnits="userSpaceOnUse">
<stop offset="0.00705268" stop-color="#FBD054"/>
<stop offset="1" stop-color="#C99C2C"/>
</linearGradient>
<linearGradient id="paint3_linear_806_397" x1="53.3842" y1="53.0534" x2="59.7147" y2="53.0534" gradientUnits="userSpaceOnUse">
<stop stop-color="#FBD054"/>
<stop offset="1" stop-color="#C99C2C"/>
</linearGradient>
<linearGradient id="paint4_linear_806_397" x1="70.418" y1="60.9436" x2="85.95" y2="60.9436" gradientUnits="userSpaceOnUse">
<stop stop-color="#C99C2C"/>
<stop offset="1" stop-color="#AE7D2C"/>
</linearGradient>
<linearGradient id="paint5_linear_806_397" x1="71.6803" y1="63.8091" x2="82.7111" y2="63.8091" gradientUnits="userSpaceOnUse">
<stop stop-color="#C99C2C"/>
<stop offset="1" stop-color="#AE7D2C"/>
</linearGradient>
</defs>
</svg>
