<svg width="24" height="24" viewBox="0 0 24 24" fill="none" xmlns="http://www.w3.org/2000/svg">
<path d="M18.75 8V10.1C18.2524 10.0377 17.7515 10.0043 17.25 10V8C17.25 4.85 16.36 2.75 12 2.75C7.64 2.75 6.75 4.85 6.75 8V10C6.24849 10.0043 5.74765 10.0377 5.25 10.1L5.25 8C5.25 5.1 5.95 1.25 12 1.25C18.05 1.25 18.75 5.1 18.75 8Z" fill="url(#paint0_linear_806_348)"/>
<path d="M18.75 10.1C18.2524 10.0377 17.7515 10.0043 17.25 10L6.75 10C6.24849 10.0043 5.74765 10.0377 5.25 10.1C2.7 10.41 2 11.66 2 15V17C2 21 3 22 7 22H17C21 22 22 21 22 17V15C22 11.66 21.3 10.41 18.75 10.1ZM8.71 16.71C8.51826 16.8926 8.26473 16.9961 8 17C7.86932 16.9984 7.74022 16.9712 7.62 16.92C7.49762 16.8717 7.38561 16.8004 7.29 16.71C7.10743 16.5183 7.00388 16.2647 7 16C7.00158 15.8693 7.02876 15.7402 7.08 15.62C7.13073 15.4989 7.20175 15.3873 7.29 15.29C7.38561 15.1996 7.49762 15.1283 7.62 15.08C7.80211 15.0034 8.00282 14.9825 8.19681 15.0199C8.3908 15.0572 8.56938 15.1512 8.71 15.29C8.79825 15.3873 8.86927 15.4989 8.92 15.62C8.97124 15.7402 8.99842 15.8693 9 16C8.99612 16.2647 8.89257 16.5183 8.71 16.71ZM12.92 16.38C12.8693 16.5011 12.7983 16.6127 12.71 16.71C12.5183 16.8926 12.2647 16.9961 12 17C11.7349 16.998 11.4807 16.8942 11.29 16.71C11.2017 16.6127 11.1307 16.5011 11.08 16.38C11.0288 16.2598 11.0016 16.1307 11 16C11.002 15.7349 11.1058 15.4807 11.29 15.29C11.4834 15.1116 11.7369 15.0125 12 15.0125C12.2631 15.0125 12.5166 15.1116 12.71 15.29C12.8942 15.4807 12.998 15.7349 13 16C12.9984 16.1307 12.9712 16.2598 12.92 16.38ZM16.71 16.71C16.5204 16.8959 16.2655 17.0001 16 17.0001C15.7345 17.0001 15.4796 16.8959 15.29 16.71C15.1041 16.5204 14.9999 16.2655 14.9999 16C14.9999 15.7345 15.1041 15.4796 15.29 15.29C15.4834 15.1116 15.7369 15.0125 16 15.0125C16.2631 15.0125 16.5166 15.1116 16.71 15.29C16.75 15.34 16.79 15.39 16.83 15.45C16.8696 15.501 16.9001 15.5585 16.92 15.62C16.9489 15.6767 16.9691 15.7373 16.98 15.8C16.9911 15.8661 16.9978 15.933 17 16C16.9961 16.2647 16.8926 16.5183 16.71 16.71Z" fill="url(#paint1_linear_806_348)"/>
<defs>
<linearGradient id="paint0_linear_806_348" x1="12.2314" y1="10.1" x2="12.2314" y2="1.25" gradientUnits="userSpaceOnUse">
<stop stop-color="#C99C2C"/>
<stop offset="1" stop-color="#FBD054"/>
</linearGradient>
<linearGradient id="paint1_linear_806_348" x1="12.3429" y1="22" x2="12.3429" y2="10" gradientUnits="userSpaceOnUse">
<stop stop-color="#C99C2C"/>
<stop offset="1" stop-color="#FBD054"/>
</linearGradient>
</defs>
</svg>
